<?xml version="1.0" encoding="UTF-8" standalone="no"?>
<svg
   xmlns="http://www.w3.org/2000/svg"
   id="svg8"
   version="1.1"
   viewBox="0 0 585.74896 432.45349"
   height="432.45349mm"
   width="585.74896mm">
  <defs
     id="defs2">
    <clipPath
       clipPathUnits="userSpaceOnUse"
       id="clipPath3895">
      <path
         d="m 1766.01,2435.84 c -60.26,0 -109.29,-49.03 -109.29,-109.29 0,-60.26 49.03,-109.29 109.29,-109.29 60.26,0 109.29,49.03 109.29,109.29 0,60.26 -49.03,109.29 -109.29,109.29 z m 0,-272.9 c -90.21,0 -163.61,73.4 -163.61,163.61 0,90.22 73.4,163.61 163.61,163.61 90.21,0 163.6,-73.39 163.6,-163.61 0,-90.21 -73.39,-163.61 -163.6,-163.61 z"
         id="path3893" />
    </clipPath>
  </defs>
  
  <g
     transform="translate(188.63611,108.5928)"
     id="layer1">
    <g
       id="g3721"
       transform="matrix(1.430634,0,0,-1.430634,-183.51712,308.76463)">
      <g
         id="g3723"
         transform="scale(0.1)">
        <path
           d="M 4050,0 H 0 V 2822.5 H 4050 V 0"
           style="fill:none;fill-opacity:1;fill-rule:nonzero;stroke:none"
           id="path3725" />
        <path
           d="M 4058.55,-105.52 H -35.7813 V 2917.29 H 4058.55 V -105.52"
           style="fill:none;fill-opacity:1;fill-rule:nonzero;stroke:none"
           id="path3727" />
        <path
           d="m 1944.2,2112.73 c -7.65,0 -14.99,-3.23 -20.15,-8.87 -4.91,-5.38 -7.44,-12.36 -7.11,-19.63 0.33,-7.29 3.47,-14 8.85,-18.92 5.04,-4.6 11.57,-7.14 18.39,-7.14 7.66,0 15,3.24 20.16,8.88 10.14,11.1 9.36,28.4 -1.74,38.54 -5.04,4.61 -11.57,7.14 -18.4,7.14 z m -0.02,-70.34 c -10.77,0 -21.07,4 -29.03,11.28 -8.49,7.76 -13.45,18.36 -13.97,29.85 -0.52,11.48 3.47,22.49 11.23,30.98 8.14,8.9 19.73,14.01 31.79,14.01 10.77,0 21.08,-4 29.03,-11.28 17.53,-16.01 18.76,-43.29 2.76,-60.82 -8.15,-8.91 -19.74,-14.02 -31.81,-14.02"
           style="fill:#e4f6f1;fill-opacity:1;fill-rule:nonzero;stroke:none"
           id="path3729" />
        <path
           d="m 1857.43,1990.51 v 0 c -4.35,3.99 -4.67,10.77 -0.67,15.13 l 35.66,39.03 17.19,2.94 -1.38,-17.39 -35.66,-39.03 c -4,-4.37 -10.76,-4.67 -15.14,-0.68"
           style="fill:#e4f6f1;fill-opacity:1;fill-rule:nonzero;stroke:none"
           id="path3731" />
        <path
           d="m 1899.9,2028.54 -8.42,7.68 23.29,25.48 8.41,-7.68 -23.28,-25.48"
           style="fill:#e4f6f1;fill-opacity:1;fill-rule:nonzero;stroke:none"
           id="path3733" />
        <path
           d="m 1163.83,1152.93 c -13.4,0 -24.26,10.86 -24.26,24.26 0,13.4 10.86,24.26 24.26,24.26 13.4,0 24.26,-10.86 24.26,-24.26 0,-13.4 -10.86,-24.26 -24.26,-24.26 z m 42.7,14.36 c 0,0 -0.91,0.57 -2.29,1.33 -1.32,0.75 -3.13,1.67 -4.96,2.52 0.34,1.97 0.51,3.99 0.51,6.05 0,2.06 -0.17,4.08 -0.51,6.04 1.83,0.84 3.64,1.77 4.96,2.51 1.38,0.77 2.29,1.34 2.29,1.34 0.46,0.19 0.8,0.62 0.98,1.19 0.17,0.56 0.17,1.25 -0.03,1.95 0,0 -0.06,0.2 -0.18,0.56 -0.12,0.35 -0.29,0.86 -0.5,1.47 -0.21,0.61 -0.49,1.29 -0.78,2.05 -0.31,0.74 -0.67,1.51 -1.03,2.29 -0.39,0.76 -0.76,1.53 -1.16,2.23 -0.4,0.69 -0.76,1.35 -1.11,1.88 -0.34,0.54 -0.63,1 -0.83,1.31 -0.1,0.16 -0.19,0.28 -0.24,0.35 -0.06,0.09 -0.09,0.13 -0.09,0.13 -0.42,0.6 -0.95,1.03 -1.5,1.24 -0.56,0.22 -1.1,0.22 -1.54,-0.03 0,0 -1.01,-0.36 -2.47,-0.96 -1.41,-0.57 -3.27,-1.4 -5.06,-2.31 -2.68,3.03 -5.88,5.6 -9.45,7.55 0.49,1.95 0.87,3.92 1.13,5.45 0.26,1.57 0.39,2.61 0.39,2.61 0.13,0.48 0.01,1.02 -0.33,1.51 -0.16,0.24 -0.38,0.48 -0.64,0.68 -0.26,0.2 -0.57,0.37 -0.9,0.5 0,0 -0.2,0.09 -0.55,0.22 -0.35,0.14 -0.85,0.33 -1.46,0.52 -0.61,0.22 -1.32,0.45 -2.1,0.67 -0.38,0.1 -0.78,0.21 -1.18,0.33 -0.41,0.1 -0.83,0.19 -1.25,0.29 -1.66,0.39 -3.36,0.66 -4.63,0.8 -0.64,0.09 -1.16,0.13 -1.53,0.16 -0.37,0.02 -0.59,0.04 -0.59,0.04 -0.72,0.07 -1.4,-0.11 -1.9,-0.4 -0.51,-0.3 -0.85,-0.73 -0.94,-1.21 0,0 -0.34,-1 -0.78,-2.53 -0.43,-1.48 -0.94,-3.43 -1.35,-5.4 -4.17,-0.21 -8.14,-1.15 -11.8,-2.69 -1.23,1.6 -2.54,3.14 -3.57,4.28 -1.06,1.18 -1.8,1.93 -1.8,1.93 -0.3,0.4 -0.79,0.65 -1.38,0.69 -0.29,0.02 -0.61,0 -0.93,-0.08 -0.32,-0.08 -0.65,-0.21 -0.96,-0.39 0,0 -0.19,-0.11 -0.51,-0.3 -0.33,-0.18 -0.78,-0.46 -1.32,-0.81 -0.26,-0.17 -0.56,-0.36 -0.87,-0.56 -0.3,-0.21 -0.61,-0.43 -0.94,-0.67 -0.32,-0.23 -0.67,-0.47 -1,-0.72 -0.33,-0.25 -0.66,-0.52 -1,-0.78 -0.68,-0.52 -1.31,-1.09 -1.92,-1.61 -0.59,-0.53 -1.12,-1.07 -1.59,-1.5 -0.46,-0.45 -0.82,-0.84 -1.07,-1.1 -0.26,-0.27 -0.41,-0.43 -0.41,-0.43 -0.98,-1.07 -1.19,-2.48 -0.51,-3.23 0,0 0.57,-0.9 1.49,-2.2 0.45,-0.64 0.99,-1.39 1.58,-2.17 0.56,-0.73 1.17,-1.49 1.79,-2.24 -2.34,-3.27 -4.14,-6.95 -5.26,-10.91 -0.97,0.02 -1.95,0.01 -2.87,-0.01 -0.99,-0.02 -1.9,-0.07 -2.69,-0.11 -1.58,-0.1 -2.64,-0.21 -2.64,-0.21 -0.49,0.03 -1.01,-0.22 -1.39,-0.65 -0.4,-0.44 -0.7,-1.05 -0.82,-1.78 0,0 -0.11,-0.85 -0.28,-2.11 -0.05,-0.64 -0.11,-1.38 -0.16,-2.18 -0.05,-0.79 -0.06,-1.64 -0.08,-2.49 0.02,-0.85 0.03,-1.7 0.08,-2.5 0.05,-0.8 0.11,-1.54 0.16,-2.18 0.17,-1.27 0.28,-2.11 0.28,-2.11 0.12,-0.72 0.42,-1.35 0.82,-1.78 0.38,-0.44 0.9,-0.67 1.39,-0.64 0,0 1.06,-0.12 2.64,-0.22 0.79,-0.05 1.7,-0.08 2.69,-0.1 0.92,-0.03 1.9,-0.03 2.87,-0.01 1.12,-3.97 2.92,-7.65 5.26,-10.91 -0.62,-0.75 -1.23,-1.53 -1.79,-2.25 -0.59,-0.78 -1.13,-1.53 -1.58,-2.18 -0.92,-1.28 -1.49,-2.19 -1.49,-2.19 -0.68,-0.75 -0.47,-2.15 0.51,-3.23 0,0 0.15,-0.15 0.41,-0.43 0.25,-0.26 0.61,-0.65 1.07,-1.1 0.47,-0.44 1,-0.97 1.59,-1.49 0.61,-0.53 1.24,-1.1 1.92,-1.61 0.34,-0.28 0.67,-0.53 1,-0.8 0.33,-0.25 0.68,-0.48 1,-0.72 0.33,-0.22 0.64,-0.46 0.94,-0.66 0.31,-0.2 0.61,-0.38 0.87,-0.56 0.54,-0.34 0.99,-0.63 1.32,-0.81 0.32,-0.18 0.51,-0.3 0.51,-0.3 0.31,-0.18 0.64,-0.3 0.96,-0.39 0.32,-0.08 0.64,-0.1 0.93,-0.08 0.59,0.05 1.08,0.28 1.38,0.69 0,0 0.74,0.74 1.8,1.94 1.03,1.13 2.34,2.67 3.57,4.27 3.66,-1.54 7.63,-2.48 11.8,-2.69 0.41,-1.96 0.92,-3.92 1.35,-5.39 0.44,-1.54 0.78,-2.53 0.78,-2.53 0.09,-0.5 0.43,-0.92 0.94,-1.21 0.5,-0.31 1.18,-0.47 1.9,-0.4 0,0 0.22,0.01 0.59,0.04 0.37,0.03 0.89,0.06 1.53,0.15 1.27,0.15 2.97,0.41 4.63,0.8 0.42,0.1 0.84,0.2 1.25,0.3 0.4,0.11 0.8,0.22 1.18,0.33 0.78,0.21 1.49,0.45 2.1,0.65 0.61,0.21 1.11,0.38 1.46,0.53 0.35,0.14 0.55,0.21 0.55,0.21 0.33,0.14 0.64,0.31 0.9,0.51 0.26,0.21 0.48,0.44 0.64,0.69 0.34,0.48 0.46,1.01 0.33,1.5 0,0 -0.13,1.04 -0.39,2.62 -0.26,1.51 -0.64,3.48 -1.13,5.45 3.57,1.95 6.77,4.52 9.45,7.55 1.79,-0.91 3.65,-1.74 5.06,-2.33 1.46,-0.59 2.47,-0.95 2.47,-0.95 0.44,-0.24 0.98,-0.24 1.54,-0.04 0.55,0.23 1.08,0.66 1.5,1.24 0,0 0.03,0.05 0.09,0.14 0.05,0.08 0.14,0.2 0.24,0.35 0.2,0.32 0.49,0.76 0.83,1.3 0.35,0.55 0.71,1.2 1.11,1.9 0.4,0.69 0.77,1.46 1.16,2.22 0.36,0.77 0.72,1.56 1.03,2.3 0.29,0.75 0.57,1.43 0.78,2.05 0.21,0.6 0.38,1.11 0.5,1.46 0.12,0.36 0.18,0.56 0.18,0.56 0.2,0.7 0.2,1.4 0.03,1.95 -0.18,0.57 -0.52,1.01 -0.98,1.19"
           style="fill:#e4f6f1;fill-opacity:1;fill-rule:nonzero;stroke:none"
           id="path3735" />
        <path
           d="m 1597.81,1143.96 h -126.29 c -1.68,0 -3.04,1.37 -3.04,3.05 0,1.68 1.36,3.03 3.04,3.03 h 126.29 c 1.68,0 3.04,-1.35 3.04,-3.03 0,-1.68 -1.36,-3.05 -3.04,-3.05"
           style="fill:#e4f6f1;fill-opacity:1;fill-rule:nonzero;stroke:none"
           id="path3737" />
        <path
           d="m 1511.94,1233.69 22.05,-17.6 -9.76,-10.23 -20.12,16.05 7.83,11.78"
           style="fill:#e4f6f1;fill-opacity:1;fill-rule:nonzero;stroke:none"
           id="path3739" />
        <path
           d="m 1515.63,1238.32 22.06,-17.6 36.03,50.74 -16.56,13.23 -41.53,-46.37"
           style="fill:#e4f6f1;fill-opacity:1;fill-rule:nonzero;stroke:none"
           id="path3741" />
        <path
           d="m 1470.93,1165.2 c -0.47,-1.12 1,-2 1.76,-1.06 l 17.84,22.32 c -1.57,2.04 -1.63,4.93 0.04,7.02 1.95,2.44 5.52,2.85 7.97,0.89 2.46,-1.95 2.86,-5.52 0.89,-7.98 -1.66,-2.07 -4.49,-2.66 -6.81,-1.59 l -17.83,-22.34 c -0.76,-0.94 0.43,-2.17 1.41,-1.48 15.83,11.25 28.35,14.61 28.35,14.61 l 15.92,25.54 -9.04,7.23 -2.09,1.68 -9.04,7.21 -21.4,-21.18 c 0,0 -0.52,-12.95 -7.97,-30.87"
           style="fill:#e4f6f1;fill-opacity:1;fill-rule:nonzero;stroke:none"
           id="path3743" />
        <path
           d="m 3050.7,1439.57 c -14.12,0 -38.19,-23.25 -55.99,-54.07 -10.37,-17.99 -17.58,-36.33 -20.26,-51.65 -2.5,-14.18 -0.77,-24.14 4.73,-27.31 1.31,-0.76 2.87,-1.14 4.63,-1.14 14.12,0 38.18,23.24 55.98,54.07 10.39,17.98 17.57,36.32 20.27,51.64 2.48,14.19 0.76,24.14 -4.74,27.32 -1.32,0.75 -2.86,1.14 -4.62,1.14 z m -66.89,-139.75 c -2.76,0 -5.26,0.65 -7.42,1.9 -7.75,4.47 -10.39,16.23 -7.43,33.09 2.8,15.95 10.23,34.94 20.92,53.47 19.34,33.48 44.34,56.86 60.82,56.86 2.74,0 5.24,-0.64 7.41,-1.89 7.75,-4.48 10.39,-16.23 7.44,-33.1 -2.81,-15.94 -10.24,-34.94 -20.94,-53.47 -19.33,-33.48 -44.34,-56.86 -60.8,-56.86"
           style="fill:#e4f6f1;fill-opacity:1;fill-rule:nonzero;stroke:none"
           id="path3745" />
        <path
           d="m 3017.25,1398.51 c -45.55,0 -76.15,-13.46 -76.15,-26.03 0,-12.57 30.6,-26.02 76.15,-26.02 h 0.02 c 45.52,0 76.13,13.45 76.13,26.02 0,12.57 -30.61,26.03 -76.15,26.03 z m 0.02,-57.62 h -0.02 c -45.82,0 -81.71,13.88 -81.71,31.59 0,17.72 35.89,31.6 81.71,31.6 45.82,0 81.71,-13.88 81.71,-31.6 0,-17.71 -35.89,-31.59 -81.69,-31.59"
           style="fill:#e4f6f1;fill-opacity:1;fill-rule:nonzero;stroke:none"
           id="path3747" />
        <path
           d="m 2983.81,1439.57 c -1.76,0 -3.32,-0.39 -4.63,-1.14 -10.88,-6.29 -7.25,-39.51 15.53,-78.96 17.79,-30.83 41.87,-54.07 55.99,-54.07 1.76,0 3.3,0.38 4.62,1.14 10.89,6.28 7.24,39.51 -15.53,78.96 -17.8,30.82 -41.86,54.07 -55.98,54.07 z m 66.89,-139.75 c -16.48,0 -41.48,23.38 -60.82,56.86 -22.91,39.69 -28.83,77.71 -13.49,86.57 2.16,1.25 4.66,1.89 7.42,1.89 16.46,0 41.47,-23.38 60.8,-56.86 22.91,-39.69 28.84,-77.7 13.5,-86.56 -2.17,-1.25 -4.67,-1.9 -7.41,-1.9"
           style="fill:#e4f6f1;fill-opacity:1;fill-rule:nonzero;stroke:none"
           id="path3749" />
        <path
           d="m 3031.19,1372.48 c 0,-7.69 -6.23,-13.94 -13.94,-13.94 -7.7,0 -13.95,6.25 -13.95,13.94 0,7.71 6.25,13.95 13.95,13.95 7.71,0 13.94,-6.24 13.94,-13.95"
           style="fill:#e4f6f1;fill-opacity:1;fill-rule:nonzero;stroke:none"
           id="path3751" />
        <path
           d="m 1119.63,1856.96 c -14.12,0 -38.19,-23.25 -55.99,-54.07 -10.38,-17.99 -17.58,-36.33 -20.26,-51.64 -2.49,-14.19 -0.77,-24.15 4.73,-27.31 1.31,-0.77 2.87,-1.15 4.62,-1.15 14.13,0 38.19,23.25 55.99,54.08 10.38,17.97 17.58,36.31 20.26,51.64 2.49,14.18 0.77,24.13 -4.73,27.31 -1.31,0.76 -2.86,1.14 -4.62,1.14 z m -66.9,-139.74 c -2.74,0 -5.24,0.64 -7.41,1.89 -7.75,4.47 -10.39,16.23 -7.43,33.1 2.79,15.94 10.23,34.93 20.93,53.46 19.32,33.48 44.33,56.86 60.81,56.86 2.74,0 5.23,-0.64 7.41,-1.89 7.75,-4.47 10.39,-16.23 7.43,-33.1 -2.8,-15.94 -10.23,-34.93 -20.93,-53.46 -19.33,-33.48 -44.33,-56.86 -60.81,-56.86"
           style="fill:#e4f6f1;fill-opacity:1;fill-rule:nonzero;stroke:none"
           id="path3753" />
        <path
           d="m 1086.18,1815.9 c -45.55,0 -76.15,-13.46 -76.15,-26.03 0,-12.57 30.6,-26.02 76.15,-26.02 h 0.01 c 45.54,0 76.13,13.45 76.13,26.02 0,12.57 -30.59,26.03 -76.14,26.03 z m 0.01,-57.62 h -0.01 c -45.82,0 -81.71,13.88 -81.71,31.59 0,17.72 35.89,31.6 81.7,31.6 45.83,0 81.72,-13.88 81.72,-31.6 0,-17.71 -35.89,-31.59 -81.7,-31.59"
           style="fill:#e4f6f1;fill-opacity:1;fill-rule:nonzero;stroke:none"
           id="path3755" />
        <path
           d="m 1052.73,1856.96 c -1.75,0 -3.31,-0.38 -4.62,-1.14 -10.88,-6.29 -7.24,-39.51 15.53,-78.95 17.8,-30.83 41.87,-54.08 55.99,-54.08 1.76,0 3.31,0.38 4.62,1.15 10.89,6.27 7.24,39.5 -15.53,78.95 -17.8,30.82 -41.86,54.07 -55.99,54.07 z m 66.9,-139.74 c -16.48,0 -41.49,23.38 -60.81,56.86 -22.91,39.68 -28.84,77.71 -13.5,86.56 2.17,1.25 4.67,1.89 7.41,1.89 16.48,0 41.48,-23.38 60.81,-56.86 22.92,-39.68 28.84,-77.7 13.5,-86.56 -2.18,-1.25 -4.67,-1.89 -7.41,-1.89"
           style="fill:#e4f6f1;fill-opacity:1;fill-rule:nonzero;stroke:none"
           id="path3757" />
        <path
           d="m 1100.13,1789.87 c 0,-7.7 -6.24,-13.94 -13.95,-13.94 -7.7,0 -13.94,6.24 -13.94,13.94 0,7.71 6.24,13.95 13.94,13.95 7.71,0 13.95,-6.24 13.95,-13.95"
           style="fill:#e4f6f1;fill-opacity:1;fill-rule:nonzero;stroke:none"
           id="path3759" />
        <path
           d="m 2621.89,2367.67 42.95,-26.66 3.5,5.62 c 1.92,3.1 0.97,7.18 -2.14,9.1 l -31.73,19.69 c -3.1,1.92 -7.17,0.97 -9.1,-2.13 l -3.48,-5.62"
           style="fill:#e4f6f1;fill-opacity:1;fill-rule:nonzero;stroke:none"
           id="path3761" />
        <path
           d="m 2646.48,2311.38 15.24,24.54 -42.97,26.66 -15.22,-24.54 42.95,-26.66"
           style="fill:#e4f6f1;fill-opacity:1;fill-rule:nonzero;stroke:none"
           id="path3763" />
        <path
           d="m 2606.85,2247.46 -42.96,26.66 -15.24,-24.54 42.97,-26.66 15.23,24.54"
           style="fill:#e4f6f1;fill-opacity:1;fill-rule:nonzero;stroke:none"
           id="path3765" />
        <path
           d="m 2557.77,2206.61 30.85,11.45 -42.96,26.66 3.44,-32.73 8.67,-5.38"
           style="fill:#e4f6f1;fill-opacity:1;fill-rule:nonzero;stroke:none"
           id="path3767" />
        <path
           d="m 2557.77,2206.61 -8.67,5.38 -2.91,-4.69 5.8,-10 5.78,9.31"
           style="fill:#e4f6f1;fill-opacity:1;fill-rule:nonzero;stroke:none"
           id="path3769" />
        <path
           d="m 2600.43,2260.31 27.5,44.33 c 0.62,1.02 1.97,1.34 3,0.7 1.01,-0.63 1.34,-1.97 0.69,-2.98 l -27.5,-44.34 c -0.63,-1.02 -1.97,-1.34 -2.99,-0.71 -1.03,0.64 -1.34,1.98 -0.7,3 z m -7.93,2.36 c -1.02,0.63 -1.33,1.97 -0.7,2.99 l 27.52,44.33 c 0.62,1.03 1.97,1.34 2.98,0.7 1.02,-0.63 1.33,-1.97 0.71,-2.99 l -27.52,-44.33 c -0.63,-1.03 -1.97,-1.34 -2.99,-0.7 z m -8.61,5.35 c -1.03,0.63 -1.34,1.97 -0.71,2.99 l 27.5,44.33 c 0.65,1.02 1.98,1.34 3.01,0.71 1.02,-0.64 1.33,-1.98 0.7,-3 l -27.51,-44.34 c -0.63,-1.01 -1.98,-1.33 -2.99,-0.69 z m -8.63,5.34 c -1.02,0.64 -1.33,1.98 -0.7,3 l 27.51,44.33 c 0.64,1.02 1.97,1.33 2.99,0.7 1.03,-0.63 1.34,-1.97 0.7,-2.99 l -27.5,-44.34 c -0.64,-1.01 -1.97,-1.33 -3,-0.7 z m 68.1,32.93 -42.97,26.66 -37.56,-60.53 42.97,-26.66 37.56,60.53"
           style="fill:#e4f6f1;fill-opacity:1;fill-rule:nonzero;stroke:none"
           id="path3771" />
        <path
           d="m 3016.31,1589.6 h -14.12 c -5.92,0 -10.73,4.81 -10.73,10.72 v 87.67 c 0,5.92 4.81,10.73 10.73,10.73 5.92,0 10.72,-4.81 10.72,-10.73 v -66.12 c 0,-2.23 -1.81,-4.04 -4.04,-4.04 -2.23,0 -4.04,1.81 -4.04,4.04 v 66.12 c 0,1.46 -1.18,2.65 -2.64,2.65 -1.47,0 -2.66,-1.19 -2.66,-2.65 v -87.67 c 0,-1.46 1.19,-2.64 2.66,-2.64 h 14.12 c 1.45,0 2.64,1.18 2.64,2.64 V 1701 c 0,8.63 -7.02,15.65 -15.65,15.65 -8.63,0 -15.64,-7.02 -15.64,-15.65 v -81.36 c 0,-2.23 -1.82,-4.04 -4.05,-4.04 -2.22,0 -4.04,1.81 -4.04,4.04 V 1701 c 0,13.08 10.64,23.72 23.73,23.72 13.09,0 23.73,-10.64 23.73,-23.72 v -100.68 c 0,-5.91 -4.81,-10.72 -10.72,-10.72"
           style="fill:#e4f6f1;fill-opacity:1;fill-rule:nonzero;stroke:none"
           id="path3773" />
        <path
           d="m 1425.03,2111.67 h -14.11 c -5.92,0 -10.73,4.81 -10.73,10.72 v 87.67 c 0,5.92 4.81,10.73 10.73,10.73 5.91,0 10.72,-4.81 10.72,-10.73 v -66.12 c 0,-2.23 -1.81,-4.04 -4.04,-4.04 -2.23,0 -4.04,1.81 -4.04,4.04 v 66.12 c 0,1.46 -1.19,2.65 -2.64,2.65 -1.47,0 -2.66,-1.19 -2.66,-2.65 v -87.67 c 0,-1.46 1.19,-2.64 2.66,-2.64 h 14.11 c 1.46,0 2.65,1.18 2.65,2.64 v 100.68 c 0,8.63 -7.03,15.64 -15.65,15.64 -8.63,0 -15.65,-7.01 -15.65,-15.64 v -81.36 c 0,-2.23 -1.81,-4.04 -4.05,-4.04 -2.22,0 -4.03,1.81 -4.03,4.04 v 81.36 c 0,13.08 10.65,23.72 23.73,23.72 13.08,0 23.72,-10.64 23.72,-23.72 v -100.68 c 0,-5.91 -4.8,-10.72 -10.72,-10.72"
           style="fill:#e4f6f1;fill-opacity:1;fill-rule:nonzero;stroke:none"
           id="path3775" />
        <path
           d="m 1460.51,1409 h -122.18 c -1.61,0 -2.91,1.31 -2.91,2.91 v 122.18 c 0,1.61 1.3,2.91 2.91,2.91 1.61,0 2.91,-1.3 2.91,-2.91 v -119.27 h 119.27 c 1.61,0 2.91,-1.29 2.91,-2.91 0,-1.6 -1.3,-2.91 -2.91,-2.91"
           style="fill:#e4f6f1;fill-opacity:1;fill-rule:nonzero;stroke:none"
           id="path3777" />
        <path
           d="m 1339.97,1460.74 -3.28,4.82 61.15,41.56 c 1.43,0.97 3.26,1.07 4.79,0.29 l 21.91,-11.29 24.14,26.29 4.28,-3.93 -24.72,-26.92 c -1.42,-1.55 -3.73,-1.96 -5.6,-1 l -22.08,11.37 -60.59,-41.19"
           style="fill:#e4f6f1;fill-opacity:1;fill-rule:nonzero;stroke:none"
           id="path3779" />
        <path
           d="m 1465.98,1534.5 -9.71,-26.18 c -0.59,-1.59 -2.87,-1.53 -3.37,0.1 l -3.02,9.68 c -0.19,0.61 -0.69,1.07 -1.32,1.21 l -9.9,2.17 c -1.66,0.38 -1.91,2.64 -0.37,3.36 l 25.25,11.9 c 1.45,0.67 2.99,-0.74 2.44,-2.24"
           style="fill:#e4f6f1;fill-opacity:1;fill-rule:nonzero;stroke:none"
           id="path3781" />
        <path
           d="m 1354.2,1458.3 v -33.69 h 16.36 v 44.8 l -16.36,-11.11"
           style="fill:#e4f6f1;fill-opacity:1;fill-rule:nonzero;stroke:none"
           id="path3783" />
        <path
           d="m 1379.02,1475.17 v -50.56 h 16.37 v 61.68 l -16.37,-11.12"
           style="fill:#e4f6f1;fill-opacity:1;fill-rule:nonzero;stroke:none"
           id="path3785" />
        <path
           d="m 1403.85,1488.31 v -63.7 h 16.36 v 55.27 l -16.36,8.43"
           style="fill:#e4f6f1;fill-opacity:1;fill-rule:nonzero;stroke:none"
           id="path3787" />
        <path
           d="m 1428.67,1479.28 v -54.67 h 16.36 v 72.48 l -16.36,-17.81"
           style="fill:#e4f6f1;fill-opacity:1;fill-rule:nonzero;stroke:none"
           id="path3789" />
        <path
           d="m 2314.9,1900.65 h 17.15 l -24.2,24.19 v -17.15 c 0,-3.9 3.16,-7.04 7.05,-7.04"
           style="fill:#e4f6f1;fill-opacity:1;fill-rule:nonzero;stroke:none"
           id="path3791" />
        <path
           d="m 2319.88,1890.37 c 2.17,0 3.93,-1.77 3.93,-3.94 0,-2.17 -1.76,-3.93 -3.93,-3.93 h -92.43 c -2.17,0 -3.93,1.76 -3.93,3.93 0,2.17 1.76,3.94 3.93,3.94 z m 0,-25.58 h -92.43 c -2.17,0 -3.93,1.76 -3.93,3.92 0,2.17 1.76,3.94 3.93,3.94 h 92.43 c 2.17,0 3.93,-1.77 3.93,-3.94 0,-2.16 -1.76,-3.92 -3.93,-3.92 z m 0,-17.72 h -92.43 c -2.17,0 -3.93,1.77 -3.93,3.94 0,2.17 1.76,3.93 3.93,3.93 h 92.43 c 2.17,0 3.93,-1.76 3.93,-3.93 0,-2.17 -1.76,-3.94 -3.93,-3.94 z m 0,-17.7 h -92.43 c -2.17,0 -3.93,1.76 -3.93,3.93 0,2.16 1.76,3.93 3.93,3.93 h 92.43 c 2.17,0 3.93,-1.77 3.93,-3.93 0,-2.17 -1.76,-3.93 -3.93,-3.93 z m 0,-17.71 h -92.43 c -2.17,0 -3.93,1.75 -3.93,3.93 0,2.17 1.76,3.93 3.93,3.93 h 92.43 c 2.17,0 3.93,-1.76 3.93,-3.93 0,-2.18 -1.76,-3.93 -3.93,-3.93 z m 0,-17.72 h -92.43 c -2.17,0 -3.93,1.77 -3.93,3.94 0,2.16 1.76,3.93 3.93,3.93 h 92.43 c 2.17,0 3.93,-1.77 3.93,-3.93 0,-2.17 -1.76,-3.94 -3.93,-3.94 z m -92.43,114.13 h 65.7 c 2.17,0 3.94,-1.76 3.94,-3.93 0,-2.17 -1.77,-3.93 -3.94,-3.93 h -65.7 c -2.17,0 -3.93,1.76 -3.93,3.93 0,2.17 1.76,3.93 3.93,3.93 z m -8.91,17.34 c -2.19,0 -3.98,-1.79 -3.98,-3.99 v -148.23 c 0,-2.2 1.79,-4 3.98,-4 h 110.25 c 2.2,0 3.98,1.8 3.98,4 v 121.52 h -20.33 c -5.8,0 -10.52,4.72 -10.52,10.52 v 20.18 h -83.38"
           style="fill:#e4f6f1;fill-opacity:1;fill-rule:nonzero;stroke:none"
           id="path3793" />
        <path
           d="m 2867.64,1888.1 h 80.2 v 80.2 h -80.2 z m 83.36,-6.31 h -86.52 c -1.75,0 -3.15,1.41 -3.15,3.16 v 86.5 c 0,1.75 1.4,3.16 3.15,3.16 H 2951 c 1.74,0 3.15,-1.41 3.15,-3.16 v -86.5 c 0,-1.75 -1.41,-3.16 -3.15,-3.16"
           style="fill:#e4f6f1;fill-opacity:1;fill-rule:nonzero;stroke:none"
           id="path3795" />
        <path
           d="m 2836.72,1857.17 h 80.19 v 80.21 h -80.19 z m 83.36,-6.31 h -86.52 c -1.74,0 -3.15,1.42 -3.15,3.16 v 86.51 c 0,1.74 1.41,3.16 3.15,3.16 h 86.52 c 1.74,0 3.14,-1.42 3.14,-3.16 v -86.51 c 0,-1.74 -1.4,-3.16 -3.14,-3.16"
           style="fill:#e4f6f1;fill-opacity:1;fill-rule:nonzero;stroke:none"
           id="path3797" />
        <path
           d="m 2833.56,1937.38 c -0.81,0 -1.61,0.31 -2.23,0.92 -1.23,1.24 -1.23,3.23 0,4.46 l 30.92,30.93 c 1.24,1.23 3.23,1.23 4.47,0 1.23,-1.23 1.23,-3.24 0,-4.47 l -30.92,-30.92 c -0.62,-0.61 -1.42,-0.92 -2.24,-0.92"
           style="fill:#e4f6f1;fill-opacity:1;fill-rule:nonzero;stroke:none"
           id="path3799" />
        <path
           d="m 2833.56,1850.86 c -0.81,0 -1.61,0.32 -2.23,0.93 -1.23,1.23 -1.23,3.23 0,4.46 l 30.92,30.92 c 1.24,1.23 3.23,1.23 4.47,0 1.23,-1.23 1.23,-3.23 0,-4.46 l -30.92,-30.92 c -0.62,-0.61 -1.42,-0.93 -2.24,-0.93"
           style="fill:#e4f6f1;fill-opacity:1;fill-rule:nonzero;stroke:none"
           id="path3801" />
        <path
           d="m 2920.08,1937.38 c -0.81,0 -1.62,0.31 -2.24,0.92 -1.23,1.24 -1.23,3.23 0,4.46 l 30.93,30.93 c 1.23,1.23 3.22,1.23 4.45,0 1.24,-1.23 1.24,-3.24 0,-4.47 l -30.92,-30.92 c -0.61,-0.61 -1.42,-0.92 -2.22,-0.92"
           style="fill:#e4f6f1;fill-opacity:1;fill-rule:nonzero;stroke:none"
           id="path3803" />
        <path
           d="m 2920.08,1850.86 c -0.81,0 -1.62,0.32 -2.24,0.93 -1.23,1.23 -1.23,3.23 0,4.46 l 30.93,30.92 c 1.23,1.23 3.22,1.23 4.45,0 1.24,-1.23 1.24,-3.23 0,-4.46 l -30.92,-30.92 c -0.61,-0.61 -1.42,-0.93 -2.22,-0.93"
           style="fill:#e4f6f1;fill-opacity:1;fill-rule:nonzero;stroke:none"
           id="path3805" />
        <path
           d="m 1551.92,2091.16 c -0.26,-0.5 -0.6,-1.22 -1.1,-2.04 -0.12,-0.2 -0.24,-0.42 -0.37,-0.64 -0.12,-0.23 -0.25,-0.46 -0.41,-0.69 -0.29,-0.45 -0.61,-0.94 -0.93,-1.45 -0.34,-0.49 -0.71,-0.99 -1.06,-1.5 l -0.28,-0.39 -0.29,-0.38 c -0.2,-0.24 -0.4,-0.5 -0.6,-0.75 -1.59,-1.99 -3.36,-3.84 -4.78,-5.14 -0.7,-0.64 -1.32,-1.15 -1.74,-1.52 -0.21,-0.18 -0.39,-0.31 -0.51,-0.41 -0.11,-0.09 -0.18,-0.14 -0.18,-0.14 0,0 -0.25,-0.19 -0.69,-0.54 -0.43,-0.36 -1.09,-0.8 -1.87,-1.36 -1.58,-1.08 -3.75,-2.43 -6.05,-3.53 -2.3,-1.11 -4.7,-1.98 -6.52,-2.54 -0.46,-0.13 -0.88,-0.25 -1.26,-0.36 -0.18,-0.05 -0.36,-0.1 -0.52,-0.14 -0.16,-0.05 -0.31,-0.08 -0.45,-0.11 -0.54,-0.13 -0.85,-0.19 -0.85,-0.19 0,0 -0.31,-0.08 -0.85,-0.21 -0.55,-0.1 -1.34,-0.24 -2.28,-0.41 -1.89,-0.26 -4.43,-0.53 -7,-0.53 -2.57,0 -5.11,0.27 -7,0.53 -0.95,0.17 -1.73,0.31 -2.28,0.41 -0.54,0.13 -0.85,0.21 -0.85,0.21 0,0 -0.31,0.06 -0.86,0.19 -0.13,0.03 -0.28,0.06 -0.44,0.11 -0.16,0.04 -0.34,0.09 -0.52,0.14 -0.38,0.11 -0.8,0.23 -1.26,0.36 -1.82,0.56 -4.22,1.43 -6.52,2.54 -2.3,1.1 -4.48,2.45 -6.05,3.53 -0.78,0.56 -1.45,1 -1.87,1.36 -0.44,0.35 -0.69,0.54 -0.69,0.54 0,0 -0.07,0.05 -0.19,0.14 -0.11,0.1 -0.29,0.23 -0.51,0.41 -0.41,0.37 -1.03,0.88 -1.73,1.52 -1.42,1.3 -3.19,3.15 -4.79,5.14 -0.19,0.25 -0.39,0.51 -0.58,0.75 l -0.31,0.38 -0.27,0.39 c -0.36,0.51 -0.72,1.01 -1.07,1.5 -0.32,0.51 -0.63,1 -0.92,1.45 -0.16,0.23 -0.29,0.46 -0.41,0.69 -0.13,0.22 -0.26,0.44 -0.37,0.64 -0.5,0.82 -0.84,1.54 -1.1,2.04 -0.26,0.49 -0.41,0.77 -0.41,0.77 0,0 -0.12,0.3 -0.35,0.8 -0.23,0.51 -0.58,1.23 -0.91,2.13 -0.17,0.44 -0.38,0.92 -0.55,1.44 -0.18,0.52 -0.37,1.06 -0.56,1.63 -0.33,1.14 -0.7,2.36 -0.97,3.61 -0.07,0.31 -0.14,0.62 -0.21,0.92 -0.06,0.32 -0.11,0.63 -0.17,0.94 -0.06,0.31 -0.11,0.62 -0.16,0.92 -0.03,0.15 -0.06,0.3 -0.08,0.45 -0.02,0.15 -0.04,0.3 -0.06,0.44 -0.07,0.6 -0.15,1.18 -0.22,1.72 -0.04,0.55 -0.08,1.06 -0.11,1.54 -0.11,0.96 -0.08,1.76 -0.11,2.32 -0.01,0.56 -0.03,0.88 -0.03,0.88 0,0 0.02,0.32 0.03,0.88 0.03,0.56 0,1.36 0.11,2.31 0.03,0.48 0.07,1 0.11,1.55 0.07,0.54 0.15,1.11 0.22,1.7 0.02,0.16 0.04,0.31 0.06,0.45 0.02,0.16 0.05,0.31 0.08,0.46 0.05,0.3 0.1,0.61 0.16,0.92 0.06,0.31 0.11,0.62 0.17,0.93 0.07,0.31 0.14,0.61 0.21,0.93 0.27,1.25 0.64,2.46 0.97,3.61 0.19,0.57 0.38,1.11 0.56,1.63 0.17,0.52 0.38,0.99 0.55,1.44 0.33,0.9 0.68,1.61 0.91,2.12 0.23,0.51 0.35,0.79 0.35,0.79 0,0 0.15,0.29 0.41,0.79 0.26,0.5 0.6,1.21 1.1,2.03 0.11,0.21 0.24,0.43 0.37,0.65 0.12,0.22 0.25,0.45 0.41,0.68 0.29,0.47 0.6,0.96 0.92,1.45 0.35,0.5 0.71,1 1.07,1.51 l 0.27,0.39 0.31,0.37 c 0.19,0.25 0.39,0.5 0.58,0.75 1.6,2 3.37,3.85 4.79,5.13 0.7,0.66 1.32,1.16 1.73,1.54 0.22,0.18 0.4,0.31 0.51,0.4 0.12,0.09 0.19,0.14 0.19,0.14 0,0 0.25,0.2 0.69,0.55 0.42,0.36 1.09,0.79 1.87,1.36 1.57,1.08 3.75,2.42 6.05,3.53 2.3,1.11 4.7,1.97 6.52,2.54 0.46,0.12 0.88,0.25 1.26,0.35 0.18,0.06 0.36,0.1 0.52,0.15 0.16,0.05 0.31,0.07 0.44,0.1 0.55,0.13 0.86,0.2 0.86,0.2 0,0 0.31,0.07 0.85,0.2 0.55,0.1 1.33,0.25 2.28,0.41 1.89,0.28 4.43,0.53 7,0.54 2.57,-0.01 5.11,-0.26 7,-0.54 0.94,-0.16 1.73,-0.31 2.28,-0.41 0.54,-0.13 0.85,-0.2 0.85,-0.2 0,0 0.31,-0.07 0.85,-0.2 0.14,-0.03 0.29,-0.05 0.45,-0.1 0.16,-0.05 0.34,-0.09 0.52,-0.15 0.38,-0.1 0.8,-0.23 1.26,-0.35 1.82,-0.57 4.22,-1.43 6.52,-2.54 2.3,-1.11 4.47,-2.45 6.05,-3.53 0.78,-0.57 1.44,-1 1.87,-1.36 0.44,-0.35 0.69,-0.55 0.69,-0.55 0,0 0.07,-0.05 0.18,-0.14 0.12,-0.09 0.3,-0.22 0.51,-0.4 0.42,-0.38 1.04,-0.88 1.74,-1.54 1.42,-1.28 3.19,-3.13 4.78,-5.13 0.2,-0.25 0.4,-0.5 0.6,-0.75 l 0.29,-0.37 0.28,-0.39 c 0.35,-0.51 0.72,-1.01 1.06,-1.51 0.32,-0.49 0.64,-0.98 0.93,-1.45 0.16,-0.23 0.29,-0.46 0.41,-0.68 0.13,-0.22 0.25,-0.44 0.37,-0.65 0.5,-0.82 0.84,-1.53 1.1,-2.03 0.26,-0.5 0.4,-0.79 0.4,-0.79 0,0 0.13,-0.28 0.36,-0.79 0.23,-0.51 0.58,-1.22 0.91,-2.12 0.17,-0.45 0.38,-0.92 0.55,-1.44 0.18,-0.52 0.36,-1.06 0.56,-1.63 0.33,-1.15 0.7,-2.36 0.96,-3.61 0.08,-0.32 0.15,-0.62 0.22,-0.93 0.06,-0.31 0.11,-0.62 0.16,-0.93 0.06,-0.31 0.12,-0.62 0.17,-0.92 0.03,-0.15 0.06,-0.3 0.08,-0.46 0.02,-0.14 0.04,-0.29 0.06,-0.45 0.07,-0.59 0.14,-1.16 0.21,-1.7 0.05,-0.55 0.09,-1.07 0.12,-1.55 0.1,-0.95 0.08,-1.75 0.11,-2.31 0.01,-0.56 0.02,-0.88 0.02,-0.88 0,0 -0.01,-0.32 -0.02,-0.88 -0.03,-0.56 -0.01,-1.36 -0.11,-2.32 -0.03,-0.48 -0.07,-0.99 -0.12,-1.54 -0.07,-0.54 -0.14,-1.12 -0.21,-1.72 -0.02,-0.14 -0.04,-0.29 -0.06,-0.44 -0.02,-0.15 -0.05,-0.3 -0.08,-0.45 -0.05,-0.3 -0.11,-0.61 -0.17,-0.92 -0.05,-0.31 -0.1,-0.62 -0.16,-0.94 -0.07,-0.3 -0.14,-0.61 -0.22,-0.92 -0.26,-1.25 -0.63,-2.47 -0.96,-3.61 -0.2,-0.57 -0.38,-1.11 -0.56,-1.63 -0.17,-0.52 -0.38,-1 -0.55,-1.44 -0.33,-0.9 -0.68,-1.62 -0.91,-2.13 -0.23,-0.5 -0.36,-0.8 -0.36,-0.8 0,0 -0.14,-0.28 -0.4,-0.77 z m 17.84,13.48 c -0.95,0.43 -1.9,0.85 -2.81,1.24 0.06,0.66 0.1,1.29 0.15,1.87 0.12,1.17 0.1,2.15 0.13,2.84 0.02,0.68 0.03,1.08 0.03,1.08 0,0 -0.01,0.39 -0.03,1.08 -0.03,0.68 -0.01,1.66 -0.13,2.84 -0.05,0.57 -0.09,1.2 -0.15,1.86 0.91,0.39 1.86,0.81 2.81,1.25 2.21,1.02 4.41,2.15 6.05,3.04 1.61,0.89 2.68,1.52 2.68,1.52 0,0 -0.08,0.45 -0.2,1.12 -0.07,0.34 -0.13,0.73 -0.21,1.15 -0.1,0.41 -0.2,0.85 -0.31,1.3 -0.09,0.44 -0.2,0.88 -0.29,1.3 -0.06,0.2 -0.1,0.4 -0.15,0.59 -0.05,0.19 -0.1,0.37 -0.14,0.53 -0.19,0.66 -0.31,1.09 -0.31,1.09 0,0 -1.25,0.12 -3.09,0.22 -0.46,0.02 -0.95,0.04 -1.48,0.07 -0.53,0.01 -1.09,0.02 -1.68,0.05 -1.15,0.02 -2.38,0.02 -3.6,0 -1.04,-0.01 -2.08,-0.04 -3.07,-0.08 -0.21,0.62 -0.46,1.2 -0.67,1.74 -0.41,1.11 -0.84,1.99 -1.12,2.61 -0.29,0.63 -0.44,0.99 -0.44,0.99 0,0 -0.18,0.35 -0.49,0.95 -0.32,0.62 -0.75,1.5 -1.36,2.5 -0.14,0.26 -0.29,0.53 -0.45,0.81 -0.15,0.26 -0.31,0.54 -0.49,0.81 0.64,0.75 1.31,1.54 1.98,2.35 1.55,1.89 3.05,3.87 4.11,5.36 1.07,1.51 1.76,2.55 1.76,2.55 0,0 -0.27,0.37 -0.66,0.92 -0.4,0.56 -0.97,1.26 -1.53,1.97 -0.28,0.35 -0.55,0.72 -0.83,1.04 -0.27,0.32 -0.54,0.62 -0.76,0.88 -0.44,0.51 -0.74,0.85 -0.74,0.85 0,0 -0.29,-0.1 -0.79,-0.3 -0.5,-0.2 -1.22,-0.48 -2.08,-0.85 -1.71,-0.72 -3.97,-1.73 -6.14,-2.82 -0.93,-0.46 -1.85,-0.94 -2.73,-1.42 -0.48,0.47 -0.93,0.9 -1.36,1.3 -0.87,0.79 -1.63,1.42 -2.14,1.87 -0.26,0.22 -0.48,0.38 -0.62,0.5 -0.15,0.11 -0.22,0.17 -0.22,0.17 0,0 -0.31,0.25 -0.85,0.67 -0.53,0.44 -1.35,0.99 -2.3,1.68 -0.48,0.32 -1,0.67 -1.56,1.03 0.27,0.96 0.53,1.96 0.79,2.98 0.29,1.2 0.56,2.39 0.79,3.51 0.23,1.13 0.43,2.18 0.58,3.1 0.32,1.83 0.5,3.07 0.5,3.07 0,0 -0.1,0.06 -0.27,0.15 -0.18,0.09 -0.43,0.22 -0.74,0.38 -0.6,0.31 -1.41,0.72 -2.22,1.14 -0.82,0.37 -1.65,0.75 -2.27,1.03 -0.31,0.14 -0.57,0.26 -0.75,0.33 -0.18,0.08 -0.29,0.12 -0.29,0.12 0,0 -0.86,-0.91 -2.1,-2.3 -0.61,-0.69 -1.32,-1.5 -2.05,-2.39 -0.74,-0.88 -1.51,-1.82 -2.26,-2.8 -0.64,-0.83 -1.26,-1.67 -1.84,-2.47 -0.63,0.21 -1.23,0.41 -1.79,0.58 -0.56,0.16 -1.08,0.31 -1.54,0.44 -0.23,0.06 -0.44,0.12 -0.64,0.18 -0.2,0.05 -0.39,0.09 -0.56,0.13 -0.66,0.15 -1.05,0.24 -1.05,0.24 0,0 -0.38,0.09 -1.05,0.25 -0.67,0.13 -1.64,0.29 -2.8,0.5 -0.57,0.09 -1.19,0.17 -1.85,0.25 -0.18,0.97 -0.38,2 -0.6,3.03 -0.51,2.38 -1.12,4.75 -1.63,6.54 -0.51,1.79 -0.89,2.98 -0.89,2.98 0,0 -0.12,0 -0.31,0.02 -0.2,0 -0.48,0.01 -0.82,0.02 -0.69,0.02 -1.58,0.03 -2.49,0.05 -0.91,-0.02 -1.81,-0.03 -2.49,-0.05 -0.34,-0.01 -0.62,-0.02 -0.82,-0.02 -0.2,-0.02 -0.31,-0.02 -0.31,-0.02 0,0 -0.39,-1.19 -0.89,-2.98 -0.51,-1.79 -1.13,-4.16 -1.63,-6.54 -0.22,-1.03 -0.42,-2.06 -0.6,-3.03 -0.66,-0.08 -1.28,-0.16 -1.86,-0.25 -1.16,-0.21 -2.12,-0.37 -2.8,-0.5 -0.66,-0.16 -1.04,-0.25 -1.04,-0.25 0,0 -0.38,-0.09 -1.06,-0.24 -0.16,-0.04 -0.35,-0.08 -0.55,-0.13 -0.2,-0.06 -0.41,-0.12 -0.64,-0.18 -0.46,-0.13 -0.98,-0.28 -1.55,-0.44 -0.55,-0.17 -1.15,-0.37 -1.78,-0.58 -0.59,0.8 -1.2,1.64 -1.85,2.47 -0.75,0.98 -1.51,1.92 -2.25,2.8 -0.73,0.89 -1.44,1.7 -2.06,2.39 -1.23,1.39 -2.09,2.3 -2.09,2.3 0,0 -0.11,-0.04 -0.29,-0.12 -0.18,-0.07 -0.44,-0.19 -0.75,-0.33 -0.62,-0.28 -1.45,-0.66 -2.28,-1.03 -0.8,-0.42 -1.61,-0.83 -2.22,-1.14 -0.3,-0.16 -0.56,-0.29 -0.73,-0.38 -0.17,-0.09 -0.27,-0.15 -0.27,-0.15 0,0 0.17,-1.24 0.49,-3.07 0.16,-0.92 0.36,-1.97 0.59,-3.1 0.23,-1.12 0.5,-2.31 0.79,-3.51 0.25,-1.02 0.52,-2.02 0.79,-2.98 -0.56,-0.36 -1.09,-0.71 -1.57,-1.03 -0.95,-0.69 -1.77,-1.24 -2.3,-1.68 -0.53,-0.42 -0.84,-0.67 -0.84,-0.67 0,0 -0.08,-0.06 -0.22,-0.17 -0.15,-0.12 -0.36,-0.28 -0.62,-0.5 -0.52,-0.45 -1.27,-1.08 -2.14,-1.87 -0.43,-0.4 -0.88,-0.83 -1.36,-1.3 -0.88,0.48 -1.8,0.96 -2.73,1.42 -2.17,1.09 -4.42,2.1 -6.14,2.82 -0.87,0.37 -1.58,0.65 -2.08,0.85 -0.51,0.2 -0.79,0.3 -0.79,0.3 0,0 -0.3,-0.34 -0.75,-0.85 -0.22,-0.26 -0.47,-0.56 -0.75,-0.88 -0.28,-0.32 -0.55,-0.69 -0.83,-1.04 -0.56,-0.71 -1.14,-1.41 -1.54,-1.97 -0.39,-0.55 -0.65,-0.92 -0.65,-0.92 0,0 0.68,-1.04 1.76,-2.55 1.05,-1.49 2.56,-3.47 4.11,-5.36 0.66,-0.81 1.34,-1.6 1.98,-2.35 -0.18,-0.27 -0.34,-0.55 -0.49,-0.81 -0.16,-0.28 -0.31,-0.55 -0.46,-0.81 -0.6,-1 -1.03,-1.88 -1.34,-2.5 -0.32,-0.6 -0.5,-0.95 -0.5,-0.95 0,0 -0.16,-0.36 -0.44,-0.99 -0.28,-0.62 -0.71,-1.5 -1.12,-2.61 -0.21,-0.54 -0.46,-1.12 -0.67,-1.74 -0.99,0.04 -2.03,0.07 -3.07,0.08 -1.23,0.02 -2.46,0.02 -3.61,0 -0.58,-0.03 -1.14,-0.04 -1.67,-0.05 -0.53,-0.03 -1.02,-0.05 -1.49,-0.07 -1.84,-0.1 -3.08,-0.22 -3.08,-0.22 0,0 -0.13,-0.43 -0.31,-1.09 -0.04,-0.16 -0.09,-0.34 -0.15,-0.53 -0.04,-0.19 -0.09,-0.39 -0.13,-0.59 -0.1,-0.42 -0.2,-0.86 -0.31,-1.3 -0.1,-0.45 -0.2,-0.89 -0.3,-1.3 -0.08,-0.42 -0.15,-0.81 -0.21,-1.15 -0.12,-0.67 -0.2,-1.12 -0.2,-1.12 0,0 1.07,-0.63 2.69,-1.52 1.62,-0.89 3.83,-2.02 6.04,-3.04 0.95,-0.44 1.89,-0.86 2.8,-1.25 -0.06,-0.66 -0.09,-1.29 -0.14,-1.86 -0.12,-1.18 -0.1,-2.16 -0.13,-2.84 -0.01,-0.69 -0.02,-1.08 -0.02,-1.08 0,0 0.01,-0.4 0.02,-1.08 0.03,-0.69 0.01,-1.67 0.13,-2.84 0.05,-0.58 0.08,-1.21 0.14,-1.87 -0.91,-0.39 -1.85,-0.81 -2.8,-1.24 -2.21,-1.03 -4.42,-2.15 -6.04,-3.05 -1.62,-0.88 -2.69,-1.52 -2.69,-1.52 0,0 0.08,-0.44 0.2,-1.11 0.06,-0.33 0.13,-0.73 0.21,-1.15 0.1,-0.41 0.2,-0.86 0.3,-1.29 0.11,-0.45 0.21,-0.89 0.31,-1.31 0.04,-0.21 0.09,-0.41 0.13,-0.6 0.06,-0.18 0.11,-0.36 0.15,-0.53 0.18,-0.65 0.31,-1.09 0.31,-1.09 0,0 1.24,-0.11 3.08,-0.21 0.47,-0.03 0.96,-0.05 1.49,-0.07 0.53,-0.01 1.09,-0.03 1.67,-0.05 1.15,-0.02 2.38,-0.02 3.61,-0.01 1.04,0.02 2.08,0.05 3.07,0.1 0.21,-0.64 0.46,-1.22 0.67,-1.75 0.41,-1.11 0.84,-1.99 1.12,-2.62 0.28,-0.63 0.44,-0.98 0.44,-0.98 0,0 0.18,-0.35 0.5,-0.96 0.31,-0.61 0.74,-1.49 1.34,-2.5 0.15,-0.26 0.3,-0.52 0.46,-0.8 0.15,-0.27 0.31,-0.54 0.49,-0.82 -0.64,-0.74 -1.32,-1.53 -1.98,-2.34 -1.55,-1.88 -3.06,-3.87 -4.11,-5.37 -1.08,-1.5 -1.76,-2.54 -1.76,-2.54 0,0 0.26,-0.37 0.65,-0.93 0.4,-0.54 0.98,-1.25 1.54,-1.96 0.28,-0.36 0.55,-0.72 0.83,-1.04 0.28,-0.33 0.53,-0.62 0.75,-0.88 0.45,-0.52 0.75,-0.87 0.75,-0.87 0,0 0.28,0.13 0.79,0.32 0.5,0.19 1.21,0.48 2.08,0.84 1.72,0.72 3.97,1.74 6.14,2.82 0.93,0.46 1.85,0.95 2.73,1.42 0.48,-0.46 0.93,-0.9 1.36,-1.29 0.87,-0.79 1.62,-1.42 2.14,-1.87 0.26,-0.23 0.47,-0.39 0.62,-0.5 0.14,-0.11 0.22,-0.18 0.22,-0.18 0,0 0.31,-0.24 0.84,-0.66 0.53,-0.44 1.35,-0.99 2.3,-1.68 0.48,-0.33 1.01,-0.67 1.57,-1.03 -0.27,-0.95 -0.54,-1.96 -0.79,-2.98 -0.29,-1.2 -0.56,-2.39 -0.79,-3.51 -0.23,-1.13 -0.43,-2.19 -0.59,-3.1 -0.32,-1.83 -0.49,-3.07 -0.49,-3.07 0,0 0.1,-0.06 0.27,-0.15 0.17,-0.09 0.43,-0.23 0.73,-0.38 0.61,-0.32 1.42,-0.73 2.22,-1.14 0.83,-0.37 1.66,-0.75 2.28,-1.03 0.31,-0.14 0.57,-0.26 0.75,-0.34 0.18,-0.07 0.29,-0.11 0.29,-0.11 0,0 0.86,0.9 2.09,2.29 0.62,0.7 1.33,1.51 2.06,2.39 0.74,0.89 1.5,1.82 2.25,2.8 0.65,0.84 1.26,1.67 1.85,2.48 0.63,-0.22 1.23,-0.41 1.78,-0.59 0.57,-0.15 1.09,-0.3 1.55,-0.43 0.23,-0.07 0.44,-0.13 0.64,-0.19 0.2,-0.05 0.39,-0.09 0.55,-0.13 0.68,-0.16 1.06,-0.24 1.06,-0.24 0,0 0.38,-0.09 1.04,-0.25 0.68,-0.12 1.64,-0.29 2.8,-0.5 0.58,-0.08 1.2,-0.17 1.86,-0.24 0.18,-0.97 0.38,-2 0.6,-3.03 0.5,-2.39 1.12,-4.75 1.63,-6.54 0.5,-1.79 0.89,-2.98 0.89,-2.98 0,0 0.11,-0.02 0.31,-0.02 0.2,0 0.48,-0.02 0.82,-0.03 0.68,-0.01 1.58,-0.04 2.49,-0.05 0.91,0.01 1.8,0.04 2.49,0.05 0.34,0.01 0.62,0.03 0.82,0.03 0.19,0 0.31,0.02 0.31,0.02 0,0 0.38,1.19 0.89,2.98 0.51,1.79 1.12,4.15 1.63,6.54 0.22,1.03 0.42,2.06 0.6,3.03 0.66,0.07 1.28,0.16 1.85,0.24 1.16,0.21 2.13,0.38 2.8,0.5 0.67,0.16 1.05,0.25 1.05,0.25 0,0 0.39,0.08 1.05,0.24 0.17,0.04 0.36,0.08 0.56,0.13 0.2,0.06 0.41,0.12 0.64,0.19 0.46,0.13 0.98,0.28 1.54,0.43 0.56,0.18 1.16,0.37 1.79,0.59 0.58,-0.81 1.2,-1.64 1.84,-2.48 0.75,-0.98 1.52,-1.91 2.26,-2.8 0.73,-0.88 1.44,-1.69 2.05,-2.39 1.24,-1.39 2.1,-2.29 2.1,-2.29 0,0 0.11,0.04 0.29,0.11 0.18,0.08 0.44,0.2 0.75,0.34 0.62,0.28 1.45,0.66 2.27,1.03 0.81,0.41 1.62,0.82 2.22,1.14 0.31,0.15 0.56,0.29 0.74,0.38 0.17,0.09 0.27,0.15 0.27,0.15 0,0 -0.18,1.24 -0.5,3.07 -0.15,0.91 -0.35,1.97 -0.58,3.1 -0.23,1.12 -0.5,2.31 -0.79,3.51 -0.26,1.02 -0.52,2.03 -0.79,2.98 0.56,0.36 1.08,0.7 1.56,1.03 0.95,0.69 1.77,1.24 2.3,1.68 0.54,0.42 0.85,0.66 0.85,0.66 0,0 0.07,0.07 0.22,0.18 0.14,0.11 0.36,0.27 0.62,0.5 0.51,0.45 1.27,1.08 2.14,1.87 0.43,0.39 0.88,0.83 1.36,1.29 0.88,-0.47 1.8,-0.96 2.73,-1.42 2.17,-1.08 4.43,-2.1 6.14,-2.82 0.86,-0.36 1.58,-0.65 2.08,-0.84 0.5,-0.19 0.79,-0.32 0.79,-0.32 0,0 0.3,0.35 0.74,0.87 0.22,0.26 0.49,0.55 0.76,0.88 0.28,0.32 0.55,0.68 0.83,1.04 0.56,0.71 1.13,1.42 1.53,1.96 0.39,0.56 0.66,0.93 0.66,0.93 0,0 -0.69,1.04 -1.76,2.54 -1.06,1.5 -2.56,3.49 -4.11,5.37 -0.67,0.81 -1.34,1.6 -1.98,2.34 0.18,0.28 0.34,0.55 0.49,0.82 0.16,0.28 0.31,0.54 0.45,0.8 0.61,1.01 1.04,1.89 1.36,2.5 0.31,0.61 0.49,0.96 0.49,0.96 0,0 0.15,0.35 0.44,0.98 0.28,0.63 0.71,1.51 1.12,2.62 0.21,0.53 0.46,1.11 0.67,1.75 0.99,-0.05 2.03,-0.08 3.07,-0.1 1.22,-0.01 2.45,-0.01 3.6,0.01 0.59,0.02 1.15,0.04 1.68,0.05 0.53,0.02 1.02,0.04 1.48,0.07 1.84,0.1 3.09,0.21 3.09,0.21 0,0 0.12,0.44 0.31,1.09 0.04,0.17 0.09,0.35 0.14,0.53 0.05,0.19 0.09,0.39 0.15,0.6 0.09,0.42 0.2,0.86 0.29,1.31 0.11,0.43 0.21,0.88 0.31,1.29 0.08,0.42 0.14,0.82 0.21,1.15 0.12,0.67 0.2,1.11 0.2,1.11 0,0 -1.07,0.64 -2.68,1.52 -1.64,0.9 -3.84,2.02 -6.05,3.05"
           style="fill:#e4f6f1;fill-opacity:1;fill-rule:nonzero;stroke:none"
           id="path3807" />
        <path
           d="m 2395.39,1965.6 c 0,-94.96 76.99,-171.96 171.95,-171.96 94.98,0 171.97,77 171.97,171.96 0,94.97 -76.99,171.96 -171.97,171.96 -94.96,0 -171.95,-76.99 -171.95,-171.96"
           style="fill:#fbc818;fill-opacity:1;fill-rule:nonzero;stroke:none"
           id="this-is-id-5" />
        <path
           d="m 2687.65,2005.19 v -67.23"
           style="fill:#ffffff;fill-opacity:1;fill-rule:nonzero;stroke:none"
           id="path3811" />
        <path
           d="m 2690.8,1937.96 h -6.31 v 67.23 h 6.31 v -67.23"
           style="fill:#ffffff;fill-opacity:1;fill-rule:nonzero;stroke:none"
           id="path3813" />
        <path
           d="m 2698.16,1930.66 c 0,-5.8 -4.7,-10.52 -10.51,-10.52 -5.81,0 -10.52,4.72 -10.52,10.52 0,5.82 4.71,10.52 10.52,10.52 5.81,0 10.51,-4.7 10.51,-10.52"
           style="fill:#ffffff;fill-opacity:1;fill-rule:nonzero;stroke:none"
           id="path3815" />
        <path
           d="m 2683.44,1905.95 h -3.16 v 20.9 h 3.16 v -20.9"
           style="fill:#ffffff;fill-opacity:1;fill-rule:nonzero;stroke:none"
           id="path3817" />
        <path
           d="m 2689.22,1905.95 h -3.15 v 20.9 h 3.15 v -20.9"
           style="fill:#ffffff;fill-opacity:1;fill-rule:nonzero;stroke:none"
           id="path3819" />
        <path
           d="m 2695,1905.95 h -3.14 v 20.9 h 3.14 v -20.9"
           style="fill:#ffffff;fill-opacity:1;fill-rule:nonzero;stroke:none"
           id="path3821" />
        <path
           d="m 2567.34,2058.11 -142.01,-51.27 142.01,-51.27 142.03,51.27 -142.03,51.27"
           style="fill:#ffffff;fill-opacity:1;fill-rule:nonzero;stroke:none"
           id="path3823" />
        <path
           d="m 2567.34,1945.3 -87.95,31.76 v -84.81 c 0,-10.59 39.38,-19.16 87.95,-19.16 48.58,0 87.97,8.57 87.97,19.16 v 84.81 l -87.97,-31.76"
           style="fill:#ffffff;fill-opacity:1;fill-rule:nonzero;stroke:none"
           id="path3825" />
        <path
           d="m 2018.33,398.25 c -0.1,0.129 -0.2,0.25 -0.31,0.379 -0.18,-0.359 -0.34,-0.699 -0.51,-1.039 -0.03,0.058 -0.05,0.109 -0.08,0.16 -0.06,-0.09 -0.11,-0.199 -0.16,-0.309 l 2.7,-0.992 c -0.48,0.75 -0.88,1.52 -1.24,2.281 -0.14,-0.16 -0.27,-0.308 -0.4,-0.48"
           style="fill:#c8dab7;fill-opacity:1;fill-rule:nonzero;stroke:none"
           id="path3827" />
        <path
           d="m 2429.98,444.801 c 185.92,-59.153 300.85,-53.672 343.27,-48.192 l -43.32,49.192 c -105.38,2.711 -197.26,26.781 -278.33,52 -48.02,14.929 -112.14,35.09 -176.66,40.437 -148.5,-51.148 -232.81,-118.566 -252.83,-135.816 121.02,94.398 231.37,98.558 407.87,42.379"
           style="fill:#c8dab7;fill-opacity:1;fill-rule:nonzero;stroke:none"
           id="path3829" />
        <path
           d="m 2017.93,398.73 c 0,0 0,-0.011 -0.01,-0.019 0,0 0.01,0.008 0.02,0.019 0,0 0,0 -0.01,0"
           style="fill:#ebf2e4;fill-opacity:1;fill-rule:nonzero;stroke:none"
           id="path3831" />
        <path
           d="m 2021.05,401.602 c 0.36,0.269 0.71,0.539 1.06,0.82 20.02,17.25 104.33,84.668 252.83,135.816 121.55,41.864 286.1,72.801 493.72,56.371 l -127.91,75.661 c 0,0 -145.42,19.089 -306.15,-12.622 C 2229.41,601.949 2116.61,520.41 2021.05,401.602"
           style="fill:#ebf2e4;fill-opacity:1;fill-rule:nonzero;stroke:none"
           id="path3833" />
        <path
           d="m 2429.98,444.801 c -176.5,56.179 -286.85,52.019 -407.87,-42.379 -0.35,-0.281 -0.7,-0.551 -1.06,-0.82 -0.77,-0.973 -1.56,-1.891 -2.32,-2.872 0.36,-0.761 0.76,-1.531 1.24,-2.281 l 104.78,-40.469 c 1.65,-0.242 2.57,-2.23 2.57,-2.23 h 7.2 658.81 13.17 l -14.63,44.18 c 0,0 -6.26,-0.66 -18.62,-2.258 -42.42,-5.473 -157.35,-10.024 -343.27,49.129"
           style="fill:#ffffff;fill-opacity:1;fill-rule:nonzero;stroke:none"
           id="path3835" />
        <path
           d="m 1606.68,444.801 c 149.42,47.551 251.43,51.871 352.64,-5.18 -42.71,28.5 -110.54,66.82 -203.45,98.77 -62.54,-6.161 -124.25,-25.68 -170.81,-40.153 -81.07,-25.226 -172.95,-48.648 -278.33,-51.347 l -44.63,-50.11 c 41.37,-5.531 156.79,-11.722 344.58,48.02"
           style="fill:#c8dab7;fill-opacity:1;fill-rule:nonzero;stroke:none"
           id="path3837" />
        <path
           d="m 2013.94,403.648 -0.02,-0.75 c 0.55,-0.418 1.09,-0.828 1.64,-1.257 -0.01,0.019 -0.02,0.039 -0.04,0.058 -0.52,0.653 -1.06,1.301 -1.58,1.949"
           style="fill:#c8dab7;fill-opacity:1;fill-rule:nonzero;stroke:none"
           id="path3839" />
        <path
           d="m 2013.92,402.898 0.02,0.75 C 1919.75,520.09 1809.03,600.57 1705.41,655.891 1541.24,690.07 1390.5,670.27 1390.5,670.27 l -127.91,-75.661 c 207.38,16.422 371.77,-14.437 493.28,-56.218 92.91,-31.95 160.74,-70.27 203.45,-98.77 18.13,-10.23 36.25,-22.449 54.6,-36.723"
           style="fill:#ebf2e4;fill-opacity:1;fill-rule:nonzero;stroke:none"
           id="path3841" />
        <path
           d="m 2104.91,332.441 c 0.35,3.18 1.28,6.079 2.52,8.75 l -93.95,34.61 -92.89,-35.59 c 0.9,-2.152 1.64,-4.43 1.99,-6.91 1.59,-5.879 14.3,-41.551 87.21,-41.551 1.72,0 3.4,-0.18 5.03,-0.461 1.64,0.281 3.32,0.461 5.04,0.461 72.08,0 83.63,34.859 85.05,40.691"
           style="fill:#9a2333;fill-opacity:1;fill-rule:nonzero;stroke:none"
           id="path3843" />
        <path
           d="m 2019.86,291.75 c -1.72,0 -3.4,-0.18 -5.04,-0.461 -1.63,0.281 -3.31,0.461 -5.03,0.461 -72.91,0 -85.62,35.672 -87.21,41.551 -0.35,2.48 -1.09,4.758 -1.99,6.91 l 92.89,35.59 93.95,-34.61 c -1.24,-2.671 -2.17,-5.57 -2.52,-8.75 -1.42,-5.832 -12.97,-40.691 -85.05,-40.691 z m 773.47,62 h -658.81 c -2.33,0 -4.58,1.57 -6.77,1.121 l -3,2.039 -104.78,39.07 -2.7,1.231 -3.94,1.559 -108.05,-41.329 -3.31,-3.109 c -2.81,0.77 -5.75,-0.582 -8.84,-0.582 h -654.8 c -16.57,0 -30,-13.441 -30,-30 0,-16.559 13.43,-30 30,-30 h 634.78 c 14.69,-20 50.83,-63.879 136.68,-63.879 1.72,0 3.4,1.117 5.03,1.399 1.64,-0.282 3.32,-1.872 5.04,-1.872 85.68,0 120.98,44.352 135.18,64.352 h 638.29 c 16.57,0 30,13.441 30,30 0,16.559 -13.43,30 -30,30"
           style="fill:#ec8115;fill-opacity:1;fill-rule:nonzero;stroke:none"
           id="path3845" />
        <path
           d="m 1905.28,353.75 108.05,43.262 3.94,-0.512 c 0.05,0.109 1.97,0.691 2.03,0.789 0.17,0.32 2.36,1.102 2.36,1.422 0,0.008 0,0.019 0,0.019 0,0.981 -3.42,1.899 -4.19,2.872 -0.02,0.007 -0.97,0.019 -0.98,0.039 -0.55,0.429 -1.56,0.839 -2.11,1.257 -18.35,14.274 -36.69,26.493 -54.83,36.723 -101.21,57.051 -203.33,52.731 -352.75,5.18 -187.79,-59.742 -303.27,-53.551 -344.64,-48.02 -11.52,1.539 -17.34,1.149 -17.34,1.149 l -14.66,-44.18 h 8.17 654.8 12.15"
           style="fill:#ffffff;fill-opacity:1;fill-rule:nonzero;stroke:none"
           id="path3847" />
        <path
           d="m 2013.94,403.648 c 0.52,-0.648 1.06,-1.296 1.58,-1.949 0.03,-0.039 0.06,-0.679 0.09,-0.719 0.77,-0.96 1.56,-3.48 2.32,-3.48 h 0.01 c 0.03,0 0.06,0.551 0.08,0.512 0.11,-0.121 0.21,0.058 0.31,-0.063 0.13,0.16 0.26,0.473 0.4,0.633 0.76,0.969 1.55,1.977 2.32,2.938 95.56,118.812 208.36,200.39 313.55,256.089 186.34,98.653 348.72,116.243 348.72,116.243 l -167.31,75.668 c -381.03,-67.551 -497.68,-305.348 -497.68,-305.348 0,0 -116.65,237.797 -497.68,305.359 l -167.31,-75.66 c 0,0 164.33,-17.762 352.07,-117.98 103.62,-55.321 214.34,-135.801 308.53,-252.243"
           style="fill:#ffffff;fill-opacity:1;fill-rule:nonzero;stroke:none"
           id="path3849" />
        <path
           d="m 1922.03,619.059 c -1.09,0 -2.21,0.082 -3.33,0.242 -13.67,1.808 -23.28,14.359 -21.48,28.039 v 0 c 0.16,1.25 15.63,126.16 -45.6,195.89 -27.49,31.321 -67.59,47.192 -119.16,47.192 h -252.52 c -7.21,-0.113 -87.97,0.148 -150.06,60.75 -45.92,44.84 -69.2,109.928 -69.2,193.498 v 304.09 c 0,13.81 11.2,25 25,25 13.8,0 25,-11.19 25,-25 v -304.09 c 0,-69.3 18.07,-122.21 53.7,-157.291 48.21,-47.449 114.15,-46.988 114.86,-46.969 0.13,0 0.36,0.012 0.5,0.012 h 252.72 c 66.69,0 119.48,-21.66 156.9,-64.383 76.15,-86.957 58.22,-229.238 57.43,-235.258 -1.68,-12.582 -12.41,-21.722 -24.76,-21.722"
           style="fill:#ffffff;fill-opacity:1;fill-rule:nonzero;stroke:none"
           id="path3851" />
        <path
           d="m 1337.23,1206.12 c -18.32,0 -30.83,2.2 -32.15,2.43 -9.5,1.75 -15.8,10.86 -14.05,20.38 1.73,9.5 10.85,15.8 20.34,14.06 1.4,-0.26 71.17,-11.92 118.47,27.69 30.48,25.51 45.94,67.49 45.94,124.76 v 533.23 c 0,9.67 7.83,17.5 17.5,17.5 9.66,0 17.5,-7.83 17.5,-17.5 v -533.23 c 0,-68.26 -19.75,-119.34 -58.72,-151.81 -37.69,-31.4 -84.32,-37.51 -114.83,-37.51"
           style="fill:#ffffff;fill-opacity:1;fill-rule:nonzero;stroke:none"
           id="path3853" />
        <path
           d="m 1272.14,1285.84 c -82.38,0 -118.02,59.59 -125.35,91.09 -0.31,1.3 -0.46,2.64 -0.46,3.97 v 96.95 c 0,9.66 7.83,17.5 17.5,17.5 9.67,0 17.5,-7.84 17.5,-17.5 v -94.63 c 3.05,-10.21 22.02,-62.38 90.81,-62.38 9.67,0 17.5,-7.84 17.5,-17.5 0,-9.67 -7.83,-17.5 -17.5,-17.5"
           style="fill:#ffffff;fill-opacity:1;fill-rule:nonzero;stroke:none"
           id="path3855" />
        <path
           d="m 1470.71,1571.84 c -52.97,0 -93.98,17.82 -121.88,52.96 -66.06,83.19 -32.03,233.61 -30.55,239.97 2.19,9.41 11.59,15.29 21.01,13.07 9.41,-2.19 15.26,-11.59 13.08,-20.99 v 0 c -0.32,-1.4 -31.67,-140.43 23.91,-210.34 21.22,-26.7 52.11,-39.67 94.43,-39.67 9.67,0 17.5,-7.84 17.5,-17.5 0,-9.67 -7.83,-17.5 -17.5,-17.5"
           style="fill:#ffffff;fill-opacity:1;fill-rule:nonzero;stroke:none"
           id="path3857" />
        <path
           d="m 1541.62,1748.06 c -21.68,0 -38.36,9.91 -39.37,10.52 -8.27,5.02 -10.9,15.79 -5.88,24.05 4.99,8.22 15.68,10.86 23.93,5.94 1.04,-0.6 19.89,-11.23 37.07,-1.35 15.04,8.63 40.25,39.74 40.25,151.14 0,9.67 7.84,17.5 17.5,17.5 9.67,0 17.5,-7.83 17.5,-17.5 0,-98.84 -19.62,-160.01 -58.33,-181.79 -11.25,-6.33 -22.51,-8.51 -32.67,-8.51"
           style="fill:#ffffff;fill-opacity:1;fill-rule:nonzero;stroke:none"
           id="path3859" />
        <path
           d="m 2016.77,490.828 c -16.56,0 -30,13.434 -30,30 v 578.662 c -0.1,7.72 0.46,75.6 50.89,127.52 37.28,38.39 90.99,57.85 159.63,57.85 1.7,0 3.4,-0.14 5.08,-0.43 32.89,-5.58 127.15,-12.42 167.38,22.68 13.43,11.72 19.37,27.17 18.69,48.59 -0.01,0.32 -0.02,0.64 -0.02,0.96 v 334.48 c 0,16.57 13.44,30 30,30 16.57,0 30,-13.43 30,-30 v -334.02 c 1.13,-38.98 -12.46,-71.92 -39.33,-95.3 -65.73,-57.23 -190.21,-40.78 -214.2,-36.97 -50.3,-0.4 -88.55,-13.57 -113.72,-39.17 -34.82,-35.41 -34.41,-84.76 -34.41,-85.25 0.01,-0.18 0.02,-0.53 0.02,-0.69 V 520.828 c 0,-16.566 -13.44,-30 -30.01,-30"
           style="fill:#ffffff;fill-opacity:1;fill-rule:nonzero;stroke:none"
           id="path3861" />
        <path
           d="m 2129.61,619.102 c -0.18,0 -0.35,0 -0.52,0 -13.78,0.269 -24.74,11.636 -24.49,25.429 0.05,2.789 1.61,69.188 33.53,136.309 30.42,64 94.43,140.301 226.52,140.301 h 225.96 c 24.35,9.437 163.84,68.738 163.84,188.289 v 353.88 c 0,13.8 11.19,25 25,25 13.81,0 25,-11.2 25,-25 v -353.88 c 0,-166.231 -193.05,-234.141 -201.27,-236.95 -2.6,-0.878 -5.34,-1.339 -8.08,-1.339 h -230.45 c -202.76,0 -209.86,-218.282 -210.06,-227.571 -0.29,-13.609 -11.43,-24.468 -24.98,-24.468"
           style="fill:#ffffff;fill-opacity:1;fill-rule:nonzero;stroke:none"
           id="path3863" />
        <path
           d="m 2701.91,1213.67 c -26.03,0 -54.86,5.39 -80.72,22.58 -47.34,31.45 -71.35,93.16 -71.35,183.43 v 489.6 c 0,9.67 7.85,17.5 17.5,17.5 9.67,0 17.5,-7.83 17.5,-17.5 v -489.6 c 0,-77.71 18.7,-129.58 55.57,-154.18 52.32,-34.9 127.03,-4.5 127.79,-4.19 8.89,3.7 19.14,-0.49 22.87,-9.4 3.73,-8.9 -0.44,-19.14 -9.34,-22.88 -2.33,-0.97 -37.34,-15.36 -79.82,-15.36"
           style="fill:#ffffff;fill-opacity:1;fill-rule:nonzero;stroke:none"
           id="path3865" />
        <path
           d="m 2012.26,1011.72 c -114.44,0 -194.39,27.95 -237.64,83.07 -41.91,53.42 -33.9,113.74 -31.06,128.69 v 918.48 c 0,13.8 11.2,25 25,25 13.8,0 25,-11.2 25,-25 v -921.03 c 0,-2 -0.24,-4.01 -0.72,-5.95 -0.42,-1.84 -10.87,-49.1 21.55,-89.87 32.98,-41.48 101.4,-63.39 197.87,-63.39 13.8,0 25,-11.19 25,-25 0,-13.81 -11.2,-25 -25,-25"
           style="fill:#ffffff;fill-opacity:1;fill-rule:nonzero;stroke:none"
           id="path3867" />
        <path
           d="m 2404.88,1440.96 c -127.3,0 -212.94,25.71 -254.53,76.42 -28.31,34.51 -25.91,69.23 -24.72,78.11 v 546.47 c 0,9.66 7.85,17.5 17.5,17.5 9.66,0 17.5,-7.84 17.5,-17.5 v -547.77 c 0,-1.15 -0.1,-2.3 -0.34,-3.43 -0.13,-0.85 -4.18,-25.86 17.84,-52.04 24.08,-28.64 82.96,-62.76 226.75,-62.76 9.67,0 17.5,-7.84 17.5,-17.5 0,-9.67 -7.83,-17.5 -17.5,-17.5"
           style="fill:#ffffff;fill-opacity:1;fill-rule:nonzero;stroke:none"
           id="path3869" />
        <path
           d="m 1791.89,1425.53 c -12.03,0 -19.87,0.89 -20.89,1.01 -9.6,1.15 -16.45,9.85 -15.31,19.45 1.15,9.59 9.86,16.41 19.43,15.3 0.85,-0.1 71.37,-7.72 117.17,29.43 22.68,18.39 35.89,45.32 39.29,80.06 v 231.85 c 0,9.66 7.83,17.5 17.5,17.5 9.66,0 17.5,-7.84 17.5,-17.5 v -232.68 c 0,-0.55 -0.03,-1.08 -0.08,-1.62 -4.19,-44.95 -21.8,-80.26 -52.35,-104.95 -40.57,-32.77 -93.43,-37.85 -122.26,-37.85"
           style="fill:#ffffff;fill-opacity:1;fill-rule:nonzero;stroke:none"
           id="path3871" />
        <path
           d="m 1741.48,1198.57 c -42.46,0 -77.39,14.91 -103.84,44.29 -68.95,76.59 -54.12,225.67 -53.46,231.97 1.02,9.62 9.66,16.55 19.24,15.58 9.61,-1.02 16.58,-9.63 15.57,-19.24 -0.15,-1.47 -13.81,-140.01 44.7,-204.94 19.81,-21.97 45.25,-32.66 77.79,-32.66 9.67,0 17.5,-7.83 17.5,-17.5 0,-9.65 -7.83,-17.5 -17.5,-17.5"
           style="fill:#ffffff;fill-opacity:1;fill-rule:nonzero;stroke:none"
           id="path3873" />
        <path
           d="m 2804.74,1283.77 c -12.44,0 -20.98,2.69 -21.69,2.93 -9.19,3.01 -14.2,12.89 -11.2,22.07 2.97,9.14 12.78,14.14 21.9,11.25 1.17,-0.33 20.73,-5.81 39.59,8.22 18.91,14.06 41.45,50.59 41.45,144.76 0,9.67 7.83,17.5 17.5,17.5 9.65,0 17.5,-7.83 17.5,-17.5 0,-87.96 -18.99,-146.33 -56.41,-173.47 -17.43,-12.64 -35.28,-15.76 -48.64,-15.76"
           style="fill:#ffffff;fill-opacity:1;fill-rule:nonzero;stroke:none"
           id="path3875" />
        <path
           d="m 2168.09,2012.1 c -8.77,0 -14.35,1.1 -14.98,1.23 -9.46,1.97 -15.54,11.24 -13.58,20.7 1.96,9.42 11.14,15.46 20.57,13.6 1.49,-0.29 30.32,-5.19 58.87,18.5 27.42,22.75 60.1,77.08 60.1,206.71 0,9.67 7.84,17.5 17.5,17.5 9.66,0 17.5,-7.83 17.5,-17.5 0,-115.77 -24.79,-194.65 -73.71,-234.44 -27.42,-22.31 -55.6,-26.3 -72.27,-26.3"
           style="fill:#ffffff;fill-opacity:1;fill-rule:nonzero;stroke:none"
           id="path3877" />
        <path
           d="m 1538.37,2311.79 c 0,-125.72 101.92,-227.63 227.64,-227.63 125.71,0 227.62,101.91 227.62,227.63 0,125.71 -101.91,227.62 -227.62,227.62 -125.72,0 -227.64,-101.91 -227.64,-227.62"
           style="fill:#ef3b49;fill-opacity:1;fill-rule:nonzero;stroke:none"
           id="this-is-id-3" />
        <path
           d="m 1800.27,2142.33 h -68.53 c -2.88,0 -5.22,2.34 -5.22,5.22 v 0 c 0,2.88 2.34,5.22 5.22,5.22 h 68.53 c 2.88,0 5.22,-2.34 5.22,-5.22 v 0 c 0,-2.88 -2.34,-5.22 -5.22,-5.22"
           style="fill:#ffffff;fill-opacity:1;fill-rule:nonzero;stroke:none"
           id="path3881" />
        <path
           d="m 1788.01,2124.88 h -44.02 c -2.34,0 -4.25,1.9 -4.25,4.25 v 1.92 c 0,2.36 1.91,4.26 4.25,4.26 h 44.02 c 2.35,0 4.26,-1.9 4.26,-4.26 v -1.92 c 0,-2.35 -1.91,-4.25 -4.26,-4.25"
           style="fill:#ffffff;fill-opacity:1;fill-rule:nonzero;stroke:none"
           id="path3883" />
        <path
           d="m 1800.27,2159.79 h -68.53 c -2.88,0 -5.22,2.33 -5.22,5.21 v 0 c 0,2.88 2.34,5.22 5.22,5.22 h 68.53 c 2.88,0 5.22,-2.34 5.22,-5.22 v 0 c 0,-2.88 -2.34,-5.21 -5.22,-5.21"
           style="fill:#ffffff;fill-opacity:1;fill-rule:nonzero;stroke:none"
           id="path3885" />
        <path
           d="m 1793.37,2299.12 h -54.74 c -1.75,0 -3.18,1.43 -3.18,3.18 0,1.75 1.43,3.18 3.18,3.18 h 54.74 c 1.76,0 3.18,-1.43 3.18,-3.18 0,-1.75 -1.42,-3.18 -3.18,-3.18 z m 0,-14.08 h -54.74 c -1.75,0 -3.18,1.42 -3.18,3.17 0,1.76 1.43,3.18 3.18,3.18 h 54.74 c 1.76,0 3.18,-1.42 3.18,-3.18 0,-1.75 -1.42,-3.17 -3.18,-3.17 z m 0,-14.09 h -54.74 c -1.75,0 -3.18,1.43 -3.18,3.18 0,1.75 1.43,3.17 3.18,3.17 h 54.74 c 1.76,0 3.18,-1.42 3.18,-3.17 0,-1.75 -1.42,-3.18 -3.18,-3.18 z m 2.69,-14.2 -18.98,-30.22 v -34.31 c 0,-1.76 -1.43,-3.19 -3.18,-3.19 -1.76,0 -3.19,1.43 -3.19,3.19 v 35.23 c 0,0.6 0.18,1.18 0.5,1.69 l 19.47,31 c 0.94,1.48 2.9,1.93 4.38,0.99 1.49,-0.93 1.93,-2.9 1,-4.38 z m -34.77,-64.53 c 0,-1.76 -1.43,-3.19 -3.17,-3.19 -1.76,0 -3.19,1.43 -3.19,3.19 v 34.31 l -18.99,30.22 c -0.93,1.48 -0.49,3.45 1,4.38 1.49,0.94 3.45,0.49 4.39,-0.99 l 19.48,-31 c 0.32,-0.51 0.48,-1.09 0.48,-1.69 z m 43.73,-4.54 h -0.89 c 0,55.66 53.36,90.45 53.36,144.02 0,38.26 -37.23,84.88 -91.48,84.88 -61.6,0 -91.49,-46.62 -91.49,-84.88 0,-53.57 53.37,-88.36 53.37,-144.02 h -0.9 c -3.28,0 -5.94,-2.34 -5.94,-5.22 0,-2.88 2.66,-5.21 5.94,-5.21 h 78.03 c 3.28,0 5.94,2.33 5.94,5.21 0,2.88 -2.66,5.22 -5.94,5.22"
           style="fill:#ffffff;fill-opacity:1;fill-rule:nonzero;stroke:none"
           id="path3887" />
        <g
           id="g3889">
          <g
             id="g3891"
             clip-path="url(#clipPath3895)">
            <path
               d="m 1769.66,2479.04 -3.65,-152.49 -7.08,152.38 c -0.14,2.96 2.15,5.46 5.11,5.61 2.96,0.13 5.47,-2.16 5.61,-5.11 0.01,-0.13 0.01,-0.27 0.01,-0.39"
               style="fill:#ffffff;fill-opacity:1;fill-rule:nonzero;stroke:none"
               id="path3897" />
            <path
               d="m 1717.28,2471.09 48.73,-144.54 -58.77,140.76 c -1.14,2.74 0.14,5.88 2.89,7.03 2.73,1.14 5.88,-0.15 7.02,-2.88 0.04,-0.12 0.09,-0.25 0.13,-0.37"
               style="fill:#ffffff;fill-opacity:1;fill-rule:nonzero;stroke:none"
               id="path3899" />
            <path
               d="m 1670.78,2445.71 95.23,-119.16 -103.37,112.18 c -2.01,2.17 -1.87,5.57 0.31,7.58 2.18,2.01 5.58,1.87 7.59,-0.31 0.08,-0.09 0.16,-0.19 0.24,-0.29"
               style="fill:#ffffff;fill-opacity:1;fill-rule:nonzero;stroke:none"
               id="path3901" />
            <path
               d="m 1635.77,2405.96 130.24,-79.41 -135.5,70.06 c -2.63,1.36 -3.67,4.6 -2.31,7.23 1.37,2.64 4.6,3.66 7.23,2.3 0.12,-0.05 0.23,-0.12 0.34,-0.18"
               style="fill:#ffffff;fill-opacity:1;fill-rule:nonzero;stroke:none"
               id="path3903" />
            <path
               d="m 1616.46,2356.62 149.55,-30.07 -151.29,19.49 c -2.94,0.38 -5.02,3.07 -4.64,6.01 0.37,2.94 3.06,5.01 6,4.63 0.13,-0.01 0.27,-0.03 0.38,-0.06"
               style="fill:#ffffff;fill-opacity:1;fill-rule:nonzero;stroke:none"
               id="path3905" />
            <path
               d="m 1615.2,2303.66 150.81,22.89 -148.83,-33.44 c -2.89,-0.64 -5.76,1.18 -6.41,4.07 -0.66,2.89 1.16,5.77 4.05,6.41 0.12,0.04 0.26,0.05 0.38,0.07"
               style="fill:#ffffff;fill-opacity:1;fill-rule:nonzero;stroke:none"
               id="path3907" />
            <path
               d="m 1632.11,2253.46 133.9,73.09 -128.42,-82.32 c -2.5,-1.6 -5.82,-0.87 -7.42,1.63 -1.6,2.49 -0.88,5.81 1.62,7.41 0.1,0.07 0.22,0.14 0.32,0.19"
               style="fill:#ffffff;fill-opacity:1;fill-rule:nonzero;stroke:none"
               id="path3909" />
            <path
               d="m 1665.19,2212.08 100.82,114.47 -92.53,-121.28 c -1.8,-2.35 -5.16,-2.81 -7.52,-1.01 -2.36,1.8 -2.82,5.17 -1.01,7.53 0.07,0.1 0.16,0.19 0.24,0.29"
               style="fill:#ffffff;fill-opacity:1;fill-rule:nonzero;stroke:none"
               id="path3911" />
            <path
               d="m 1861.24,2207.38 -95.23,119.17 103.37,-112.17 c 2,-2.19 1.87,-5.58 -0.32,-7.59 -2.18,-2.02 -5.57,-1.87 -7.58,0.31 -0.08,0.09 -0.17,0.19 -0.24,0.28"
               style="fill:#ffffff;fill-opacity:1;fill-rule:nonzero;stroke:none"
               id="path3913" />
            <path
               d="m 1896.25,2247.14 -130.24,79.41 135.5,-70.05 c 2.63,-1.37 3.66,-4.61 2.3,-7.24 -1.36,-2.64 -4.6,-3.66 -7.24,-2.3 -0.1,0.05 -0.22,0.12 -0.32,0.18"
               style="fill:#ffffff;fill-opacity:1;fill-rule:nonzero;stroke:none"
               id="path3915" />
            <path
               d="m 1915.55,2296.48 -149.54,30.07 151.29,-19.49 c 2.94,-0.38 5.01,-3.06 4.64,-6.01 -0.38,-2.94 -3.07,-5.01 -6.01,-4.63 -0.12,0.01 -0.26,0.03 -0.38,0.06"
               style="fill:#ffffff;fill-opacity:1;fill-rule:nonzero;stroke:none"
               id="path3917" />
            <path
               d="m 1916.82,2349.43 -150.81,-22.88 148.82,33.43 c 2.89,0.65 5.77,-1.17 6.42,-4.06 0.65,-2.89 -1.17,-5.76 -4.06,-6.41 -0.12,-0.03 -0.26,-0.06 -0.37,-0.08"
               style="fill:#ffffff;fill-opacity:1;fill-rule:nonzero;stroke:none"
               id="path3919" />
            <path
               d="m 1899.9,2399.64 -133.89,-73.09 128.42,82.32 c 2.49,1.6 5.81,0.87 7.42,-1.62 1.6,-2.5 0.87,-5.82 -1.63,-7.42 -0.1,-0.06 -0.22,-0.13 -0.32,-0.19"
               style="fill:#ffffff;fill-opacity:1;fill-rule:nonzero;stroke:none"
               id="path3921" />
            <path
               d="m 1866.83,2441.02 -100.82,-114.47 92.52,121.27 c 1.79,2.37 5.16,2.82 7.51,1.02 2.37,-1.8 2.82,-5.17 1.02,-7.52 -0.07,-0.1 -0.16,-0.21 -0.23,-0.3"
               style="fill:#ffffff;fill-opacity:1;fill-rule:nonzero;stroke:none"
               id="path3923" />
            <path
               d="m 1821.6,2468.61 -55.59,-142.06 45.46,145.61 c 0.88,2.82 3.9,4.4 6.72,3.52 2.84,-0.88 4.41,-3.89 3.53,-6.72 -0.04,-0.12 -0.08,-0.25 -0.12,-0.35"
               style="fill:#ffffff;fill-opacity:1;fill-rule:nonzero;stroke:none"
               id="path3925" />
          </g>
        </g>
        <path
           d="m 1830.54,1834.77 c 0,-65.46 53.07,-118.53 118.54,-118.53 65.46,0 118.54,53.07 118.54,118.53 0,65.46 -53.08,118.54 -118.54,118.54 -65.47,0 -118.54,-53.08 -118.54,-118.54"
           style="fill:#3faa97;fill-opacity:1;fill-rule:nonzero;stroke:none"
           id="path3927" />
        <path
           d="m 1986.46,1868.53 h -74.77 V 1895 h 74.77 z m -87.67,30.85 v -40.09 h 100.58 v 40.09 c 0,4.58 -3.72,8.3 -8.3,8.3 h -83.99 c -4.57,0 -8.29,-3.72 -8.29,-8.3"
           style="fill:#ffffff;fill-opacity:1;fill-rule:nonzero;stroke:none"
           id="path3929" />
        <path
           d="m 1914.02,1786.79 h 7.58 c 1.29,0 2.34,-1.05 2.34,-2.34 v -7.58 c 0,-1.28 -1.05,-2.32 -2.34,-2.32 h -7.58 c -1.28,0 -2.33,1.04 -2.33,2.32 v 7.58 c 0,1.29 1.05,2.34 2.33,2.34 z m 0,19.68 h 7.58 c 1.29,0 2.34,-1.04 2.34,-2.33 v -7.58 c 0,-1.29 -1.05,-2.33 -2.34,-2.33 h -7.58 c -1.28,0 -2.33,1.04 -2.33,2.33 v 7.58 c 0,1.29 1.05,2.33 2.33,2.33 z m 0,19.69 h 7.58 c 1.29,0 2.34,-1.05 2.34,-2.33 v -7.58 c 0,-1.29 -1.05,-2.33 -2.34,-2.33 h -7.58 c -1.28,0 -2.33,1.04 -2.33,2.33 v 7.58 c 0,1.28 1.05,2.33 2.33,2.33 z m 0,19.68 h 7.58 c 1.29,0 2.34,-1.04 2.34,-2.33 v -7.58 c 0,-1.29 -1.05,-2.32 -2.34,-2.32 h -7.58 c -1.28,0 -2.33,1.03 -2.33,2.32 v 7.58 c 0,1.29 1.05,2.33 2.33,2.33 z m 19.03,-59.05 h 7.58 c 1.28,0 2.33,-1.05 2.33,-2.34 v -7.58 c 0,-1.28 -1.05,-2.32 -2.33,-2.32 h -7.58 c -1.29,0 -2.33,1.04 -2.33,2.32 v 7.58 c 0,1.29 1.04,2.34 2.33,2.34 z m 0,19.68 h 7.58 c 1.28,0 2.33,-1.04 2.33,-2.33 v -7.58 c 0,-1.29 -1.05,-2.33 -2.33,-2.33 h -7.58 c -1.29,0 -2.33,1.04 -2.33,2.33 v 7.58 c 0,1.29 1.04,2.33 2.33,2.33 z m 0,19.69 h 7.58 c 1.28,0 2.33,-1.05 2.33,-2.33 v -7.58 c 0,-1.29 -1.05,-2.33 -2.33,-2.33 h -7.58 c -1.29,0 -2.33,1.04 -2.33,2.33 v 7.58 c 0,1.28 1.04,2.33 2.33,2.33 z m 0,19.68 h 7.58 c 1.28,0 2.33,-1.04 2.33,-2.33 v -7.58 c 0,-1.29 -1.05,-2.32 -2.33,-2.32 h -7.58 c -1.29,0 -2.33,1.03 -2.33,2.32 v 7.58 c 0,1.29 1.04,2.33 2.33,2.33 z m 19.02,-59.05 h 7.58 c 1.29,0 2.33,-1.05 2.33,-2.34 v -7.58 c 0,-1.28 -1.04,-2.32 -2.33,-2.32 h -7.58 c -1.29,0 -2.33,1.04 -2.33,2.32 v 7.58 c 0,1.29 1.04,2.34 2.33,2.34 z m 0,19.68 h 7.58 c 1.29,0 2.33,-1.04 2.33,-2.33 v -7.58 c 0,-1.29 -1.04,-2.33 -2.33,-2.33 h -7.58 c -1.29,0 -2.33,1.04 -2.33,2.33 v 7.58 c 0,1.29 1.04,2.33 2.33,2.33 z m 0,19.69 h 7.58 c 1.29,0 2.33,-1.05 2.33,-2.33 v -7.58 c 0,-1.29 -1.04,-2.33 -2.33,-2.33 h -7.58 c -1.29,0 -2.33,1.04 -2.33,2.33 v 7.58 c 0,1.28 1.04,2.33 2.33,2.33 z m 0,19.68 h 7.58 c 1.29,0 2.33,-1.04 2.33,-2.33 v -7.58 c 0,-1.29 -1.04,-2.32 -2.33,-2.32 h -7.58 c -1.29,0 -2.33,1.03 -2.33,2.32 v 7.58 c 0,1.29 1.04,2.33 2.33,2.33 z m 24.48,-39.37 h 7.59 c 1.28,0 2.32,-1.04 2.32,-2.33 v -27.27 c 0,-1.28 -1.04,-2.32 -2.32,-2.32 h -7.59 c -1.29,0 -2.33,1.04 -2.33,2.32 v 27.27 c 0,1.29 1.04,2.33 2.33,2.33 z m 0,19.69 h 7.59 c 1.28,0 2.32,-1.05 2.32,-2.33 v -7.58 c 0,-1.29 -1.04,-2.33 -2.32,-2.33 h -7.59 c -1.29,0 -2.33,1.04 -2.33,2.33 v 7.58 c 0,1.28 1.04,2.33 2.33,2.33 z m 0,19.68 h 7.59 c 1.28,0 2.32,-1.04 2.32,-2.33 v -7.58 c 0,-1.29 -1.04,-2.32 -2.32,-2.32 h -7.59 c -1.29,0 -2.33,1.03 -2.33,2.32 v 7.58 c 0,1.29 1.04,2.33 2.33,2.33 z m -69.47,-83.97 h 83.99 c 4.58,0 8.3,3.72 8.3,8.3 v 84.13 h -100.58 v -84.13 c 0,-4.58 3.72,-8.3 8.29,-8.3"
           style="fill:#ffffff;fill-opacity:1;fill-rule:nonzero;stroke:none"
           id="path3931" />
        <path
           d="m 1034.85,1562.16 c 0,-71.24 57.74,-128.98 128.98,-128.98 71.23,0 128.98,57.74 128.98,128.98 0,71.23 -57.75,128.98 -128.98,128.98 -71.24,0 -128.98,-57.75 -128.98,-128.98"
           style="fill:#ef3b49;fill-opacity:1;fill-rule:nonzero;stroke:none"
           id="this-is-id-1" />
        <path
           d="m 1095.18,1529.14 h 137.29 v 92.28 h -137.29 z m 138,-9 h -138.71 c -4.57,0 -8.29,3.72 -8.29,8.29 v 93.7 c 0,4.57 3.72,8.29 8.29,8.29 h 138.71 c 4.58,0 8.29,-3.72 8.29,-8.29 v -93.7 c 0,-4.57 -3.71,-8.29 -8.29,-8.29"
           style="fill:#ffffff;fill-opacity:1;fill-rule:nonzero;stroke:none"
           id="path3935" />
        <path
           d="m 1211.3,1568.21 -27.14,18.55 c -0.3,0.2 -0.71,-0.06 -0.64,-0.41 l 5.9,-32.35 c 0.07,-0.35 0.52,-0.45 0.74,-0.17 l 6.58,8.53 6.24,-9.6 c 0.52,-0.81 1.6,-1.03 2.4,-0.51 l 1.03,0.67 c 0.81,0.52 1.04,1.6 0.51,2.41 l -6.24,9.6 10.48,2.54 c 0.35,0.09 0.43,0.54 0.14,0.74"
           style="fill:#ffffff;fill-opacity:1;fill-rule:nonzero;stroke:none"
           id="path3937" />
        <path
           d="m 1235.92,1501.72 c -2.21,0 -4,1.79 -4,3.99 0,2.2 1.79,3.99 4,3.99 2.2,0 3.98,-1.79 3.98,-3.99 0,-2.2 -1.78,-3.99 -3.98,-3.99 z m -13.71,0 c -2.21,0 -3.99,1.79 -3.99,3.99 0,2.2 1.78,3.99 3.99,3.99 2.2,0 3.98,-1.79 3.98,-3.99 0,-2.2 -1.78,-3.99 -3.98,-3.99 z m 24.69,11.31 h -166.15 c -2.28,0 -4.14,-1.86 -4.14,-4.14 v -6.36 c 0,-2.29 1.86,-4.13 4.14,-4.13 h 166.15 c 2.29,0 4.14,1.84 4.14,4.13 v 6.36 c 0,2.28 -1.85,4.14 -4.14,4.14"
           style="fill:#ffffff;fill-opacity:1;fill-rule:nonzero;stroke:none"
           id="path3939" />
        <path
           d="m 1500.57,1551.97 c 0,-54.89 44.5,-99.39 99.39,-99.39 54.89,0 99.39,44.5 99.39,99.39 0,54.9 -44.5,99.39 -99.39,99.39 -54.89,0 -99.39,-44.49 -99.39,-99.39"
           style="fill:#ef3b49;fill-opacity:1;fill-rule:nonzero;stroke:none"
           id="path3941" />
        <path
           d="m 1577.25,1598.48 c -5.94,0 -11.54,-2.27 -15.8,-6.4 -4.37,-4.22 -6.82,-9.88 -6.92,-15.95 -0.1,-6.07 2.17,-11.81 6.39,-16.17 4.32,-4.46 10.12,-6.92 16.33,-6.92 5.93,0 11.53,2.27 15.8,6.39 4.36,4.22 6.81,9.89 6.92,15.96 0.09,6.07 -2.18,11.81 -6.4,16.17 -4.32,4.47 -10.12,6.92 -16.32,6.92 z m 0,-55.54 c -8.97,0 -17.34,3.55 -23.58,9.99 -12.59,13.01 -12.25,33.83 0.75,46.41 6.16,5.96 14.26,9.23 22.83,9.23 8.97,0 17.34,-3.54 23.58,-9.99 12.58,-13 12.24,-33.81 -0.76,-46.4 -6.15,-5.96 -14.25,-9.24 -22.82,-9.24"
           style="fill:#ffffff;fill-opacity:1;fill-rule:nonzero;stroke:none"
           id="path3943" />
        <path
           d="m 1647.87,1502.79 v 0 c -3.36,-3.24 -8.71,-3.16 -11.96,0.2 l -29.03,29.99 -1.48,13.69 13.63,-1.92 29.03,-29.99 c 3.25,-3.36 3.17,-8.72 -0.19,-11.97"
           style="fill:#ffffff;fill-opacity:1;fill-rule:nonzero;stroke:none"
           id="path3945" />
        <path
           d="m 1619.96,1538.1 -6.47,-6.25 -18.94,19.58 6.46,6.25 18.95,-19.58"
           style="fill:#ffffff;fill-opacity:1;fill-rule:nonzero;stroke:none"
           id="path3947" />
        <path
           d="m 1201.14,1941.18 c 0,-68.84 55.8,-124.63 124.63,-124.63 68.83,0 124.63,55.79 124.63,124.63 0,68.82 -55.8,124.62 -124.63,124.62 -68.83,0 -124.63,-55.8 -124.63,-124.62"
           style="fill:#58c8d6;fill-opacity:1;fill-rule:nonzero;stroke:none"
           id="this-is-id-2" />
        <path
           d="m 1268.89,1971.61 7.42,-5.2 c 2.1,2.79 4.43,5.39 6.97,7.79 l -5.97,6.8 1.68,1.48 c 0.79,0.68 1.59,1.36 2.4,2.01 l 1.74,1.4 5.66,-7.06 c 2.8,2.09 5.77,3.95 8.87,5.53 l -3.8,8.19 2.02,0.94 c 0.94,0.44 1.91,0.86 2.87,1.26 l 2.06,0.85 3.44,-8.34 c 3.28,1.22 6.65,2.16 10.08,2.8 l -1.34,8.91 2.22,0.32 c 1.03,0.16 2.07,0.3 3.11,0.4 l 2.22,0.23 0.93,-8.94 c 3.49,0.23 6.99,0.19 10.47,-0.16 l 1.21,8.91 2.21,-0.29 c 1.03,-0.15 2.07,-0.31 3.1,-0.49 l 2.19,-0.4 -1.59,-8.86 c 3.41,-0.75 6.76,-1.78 9.99,-3.1 l 3.68,8.22 2.05,-0.92 c 0.95,-0.42 1.91,-0.87 2.84,-1.34 l 1.99,-1 -4.05,-8.07 c 3.05,-1.68 5.97,-3.62 8.7,-5.8 l 5.87,6.87 1.7,-1.44 c 0.79,-0.68 1.59,-1.39 2.34,-2.1 l 1.63,-1.52 -6.17,-6.61 c 2.46,-2.47 4.71,-5.15 6.73,-8 l 7.58,4.97 1.22,-1.87 c 0.57,-0.87 1.13,-1.76 1.66,-2.65 l 1.14,-1.93 -7.79,-4.63 c 1.67,-3.07 3.08,-6.27 4.21,-9.56 l 8.69,2.63 0.64,-2.14 c 0.3,-0.99 0.58,-2.01 0.85,-3.02 l 0.56,-2.16 -8.81,-2.25 c 0.85,-4.02 1.31,-8.21 1.35,-12.48 l 0.02,-2.25 -123.82,0.04 0.02,2.26 c 0.05,4.86 0.65,9.65 1.79,14.27 l -8.72,2.51 0.61,2.13 c 0.29,1.01 0.6,2.02 0.94,3.01 l 0.71,2.12 8.6,-2.9 c 1.23,3.25 2.73,6.41 4.5,9.43 l -7.65,4.87 1.2,1.88 c 0.56,0.89 1.15,1.77 1.75,2.62 z m -25.82,-41.8 -0.02,-2.22 -10.3,0.01 -0.02,-22.79 23.42,-0.01 v 9.52 l 6.92,-0.01 v -9.51 l 7.78,-0.01 v 9.52 h 6.92 l -0.01,-9.52 h 7.79 v 9.51 h 6.92 v -9.51 l 7.78,-0.01 v 9.52 l 6.93,-0.01 -0.01,-9.51 7.78,-0.01 v 9.52 l 6.93,-0.01 v -9.51 h 7.78 v 9.51 h 6.92 l -0.01,-9.51 7.79,-0.01 v 9.51 h 6.92 l -0.01,-9.51 h 7.78 l 0.01,9.51 h 6.92 v -9.51 l 7.78,-0.01 v 9.52 l 6.92,-0.01 v -9.51 l 7.78,-0.01 v 9.52 l 6.93,-0.01 -0.01,-9.51 23.41,-0.01 0.01,22.79 h -10.3 l -0.02,2.23 c -0.3,45.3 -37.38,82.18 -82.67,82.2 -45.31,0 -82.41,-36.85 -82.74,-82.14"
           style="fill:#ffffff;fill-opacity:1;fill-rule:nonzero;stroke:none"
           id="path3951" />
        <path
           d="m 2607.5,1583.26 c 0,-94.97 76.98,-171.95 171.95,-171.95 94.97,0 171.96,76.98 171.96,171.95 0,94.97 -76.99,171.95 -171.96,171.95 -94.97,0 -171.95,-76.98 -171.95,-171.95"
           style="fill:#58c8d6;fill-opacity:1;fill-rule:nonzero;stroke:none"
           id="this-is-id-6" />
        <path
           d="m 2793.28,1654.42 c -8.44,0 -15.28,-6.84 -15.28,-15.27 0,-8.45 6.84,-15.28 15.28,-15.28 8.44,0 15.27,6.83 15.27,15.28 0,8.43 -6.83,15.27 -15.27,15.27 z m -10.85,-121.5 c -4.02,0 -7.27,-3.26 -7.27,-7.29 0,-4.01 3.25,-7.27 7.27,-7.27 4.02,0 7.28,3.26 7.28,7.27 0,4.03 -3.26,7.29 -7.28,7.29 z m -87.04,-44.69 h 73.2 v 14.91 c -9.43,-1.96 -19.67,-2.57 -15.1,7.45 l 0.77,1.69 -6.71,1.84 c -3.31,-1.59 -8.58,-2.02 -14.5,-0.89 -10.08,1.92 -18.26,7.6 -18.3,12.71 -0.04,5.11 8.09,7.69 18.16,5.77 10.07,-1.92 18.26,-7.6 18.3,-12.71 0,-0.67 -0.14,-1.29 -0.4,-1.87 l 5.03,-1.39 c 5.29,11.82 10.35,23.61 15.46,35.27 l -59.71,15.68 c -1.2,0.32 -1.93,1.56 -1.61,2.75 l 1.44,5.5 c 0.32,1.21 1.56,1.93 2.77,1.62 l 74.6,-19.6 c 1.21,-0.32 1.95,-1.56 1.63,-2.77 l -0.95,-3.56 c 2.15,-0.15 4.02,-0.1 5.86,-0.08 20.72,0.2 28.65,25.04 25.98,39.37 -3.81,20.59 -27.76,13.26 -37.8,16 l -5.58,-17.78 c -0.84,-2.64 -3.71,-4.15 -6.37,-3.31 l -1.5,0.47 -2.44,-7.77 c -0.47,-1.49 -2.05,-2.31 -3.55,-1.85 l -10.48,3.3 c -1.47,0.47 -2.3,2.06 -1.84,3.54 l 2.44,7.77 -1.49,0.47 c -2.68,0.84 -4.16,3.7 -3.32,6.37 l 29.23,93.03 c 0.84,2.66 3.71,4.16 6.37,3.33 l 1.19,-0.38 8.36,26.57 -0.8,0.25 c -0.98,0.3 -1.52,1.36 -1.22,2.34 l 1.38,4.36 c 0.31,0.99 1.36,1.53 2.34,1.22 l 17.44,-5.49 c 0.99,-0.3 1.54,-1.35 1.23,-2.33 l -1.36,-4.37 c -0.32,-0.98 -1.37,-1.53 -2.36,-1.23 l -0.79,0.26 -8.36,-26.57 1.83,-0.57 c 2.65,-0.84 4.15,-3.7 3.31,-6.37 l -3.78,-12.03 c 3.01,-0.68 6.32,-3.03 9.09,-5.37 46.54,-39.27 35.2,-114.58 -9.1,-146.31 l 17.69,-29.24 h 9.03 c 1.6,0 2.91,-1.32 2.91,-2.92 v -4.99 c 0,-1.59 -1.31,-2.9 -2.91,-2.9 h -134.71 c -1.59,0 -2.9,1.31 -2.9,2.9 v 4.99 c 0,1.6 1.31,2.92 2.9,2.92 v 0"
           style="fill:#ffffff;fill-opacity:1;fill-rule:evenodd;stroke:none"
           id="path3955" />
        <path
           d="m 2319.08,1699.67 c 0,-54.05 43.82,-97.87 97.87,-97.87 54.06,0 97.87,43.82 97.87,97.87 0,54.05 -43.81,97.87 -97.87,97.87 -54.05,0 -97.87,-43.82 -97.87,-97.87"
           style="fill:#49b440;fill-opacity:1;fill-rule:nonzero;stroke:none"
           id="path3957" />
        <path
           d="m 2420.57,1644.65 c -36.67,0 -66.51,29.83 -66.51,66.49 0,25.71 15.06,49.36 38.35,60.27 l 2.68,1.25 3.09,-6.17 c 0.76,-1.49 0.15,-3.33 -1.34,-4.08 -1.51,-0.75 -3.33,-0.14 -4.1,1.36 l -0.4,0.81 c -19.64,-10.41 -32.19,-31.06 -32.19,-53.44 0,-33.31 27.1,-60.41 60.42,-60.41 20.56,0 39.78,10.57 50.86,27.79 l -1.49,0.81 c -1.48,0.8 -2.02,2.65 -1.21,4.13 0.8,1.47 2.65,2.01 4.12,1.2 l 7,-3.82 -1.54,-2.69 c -11.84,-20.66 -33.95,-33.5 -57.74,-33.5"
           style="fill:#ffffff;fill-opacity:1;fill-rule:nonzero;stroke:none"
           id="path3959" />
        <path
           d="m 2450.63,1679.75 c -3.99,2.12 8.64,37.74 2.49,41.07 -2.79,1.5 -7.44,-4.67 -10.12,-3.04 -4.2,2.56 -0.47,22.43 6.58,23.76 6.45,1.22 16.96,-12.87 17.69,-26.79 1.01,-19.16 -13.57,-36.63 -16.64,-35 z m -24.67,14.74 c -4.32,-15.32 -22.1,-31.01 -21.6,-22.37 1.69,29.25 -18.8,26.11 -13.48,39.82 2.72,7.05 8.14,8.53 11.72,7.2 3.94,-1.45 1.07,-3.44 7.34,-12.2 5.24,-7.33 19.02,-1.77 16.02,-12.45 z m -41.47,24 c -1.46,1.35 -1.02,4.22 1,6.42 2.01,2.2 4.84,2.88 6.32,1.53 1.47,-1.35 1.02,-4.23 -0.99,-6.43 -2.01,-2.19 -4.84,-2.88 -6.33,-1.52 z m -2.17,14.18 c -1.83,4.6 20.45,28.16 30.39,20.71 7.23,-5.4 2.29,-19.36 -2.02,-20.67 -4.36,-1.31 -0.25,-0.4 -12.76,1.51 -7.5,1.14 -14.12,-5.27 -15.61,-1.55 z m 38.25,32.46 c -29.83,0 -53.99,-24.17 -53.99,-53.99 0,-29.81 24.16,-53.98 53.99,-53.98 29.81,0 53.98,24.17 53.98,53.98 0,29.82 -24.17,53.99 -53.98,53.99"
           style="fill:#ffffff;fill-opacity:1;fill-rule:nonzero;stroke:none"
           id="path3961" />
        <path
           d="m 2426.38,1634.39 h -11.63 v 15.3 h 11.63 v -15.3"
           style="fill:#ffffff;fill-opacity:1;fill-rule:nonzero;stroke:none"
           id="path3963" />
        <path
           d="m 2434.03,1626.68 h -26.94 v 9.21 h 26.94 v -9.21"
           style="fill:#ffffff;fill-opacity:1;fill-rule:nonzero;stroke:none"
           id="path3965" />
        <path
           d="m 1534.66,1971.58 c 0,-44.44 36.02,-80.45 80.46,-80.45 44.44,0 80.46,36.01 80.46,80.45 0,44.44 -36.02,80.45 -80.46,80.45 -44.44,0 -80.46,-36.01 -80.46,-80.45"
           style="fill:#fbc818;fill-opacity:1;fill-rule:nonzero;stroke:none"
           id="path3967" />
        <path
           d="m 1615.12,1941.53 c -16.59,0 -30.04,13.45 -30.04,30.05 0,16.6 13.45,30.04 30.04,30.04 16.6,0 30.05,-13.44 30.05,-30.04 0,-16.6 -13.45,-30.05 -30.05,-30.05 z m 52.88,17.79 c 0,0 -1.12,0.71 -2.83,1.66 -1.63,0.91 -3.88,2.07 -6.15,3.11 0.42,2.43 0.64,4.93 0.64,7.49 0,2.55 -0.22,5.05 -0.64,7.48 2.27,1.05 4.52,2.2 6.15,3.12 1.71,0.96 2.83,1.65 2.83,1.65 0.57,0.23 1,0.77 1.22,1.46 0.21,0.71 0.2,1.57 -0.04,2.42 0,0 -0.07,0.26 -0.22,0.7 -0.15,0.45 -0.36,1.07 -0.62,1.82 -0.26,0.75 -0.61,1.62 -0.97,2.54 -0.38,0.91 -0.84,1.88 -1.27,2.84 -0.48,0.94 -0.95,1.9 -1.44,2.76 -0.49,0.86 -0.94,1.67 -1.37,2.33 -0.43,0.68 -0.79,1.23 -1.04,1.61 -0.12,0.21 -0.22,0.36 -0.29,0.46 -0.08,0.1 -0.11,0.15 -0.11,0.15 -0.52,0.73 -1.18,1.27 -1.86,1.53 -0.69,0.27 -1.37,0.27 -1.91,-0.02 0,0 -1.24,-0.45 -3.05,-1.2 -1.75,-0.71 -4.05,-1.75 -6.28,-2.87 -3.32,3.75 -7.27,6.93 -11.69,9.35 0.6,2.43 1.08,4.87 1.39,6.75 0.33,1.95 0.49,3.25 0.49,3.25 0.16,0.59 0.01,1.25 -0.4,1.85 -0.21,0.3 -0.48,0.6 -0.8,0.85 -0.32,0.25 -0.7,0.46 -1.12,0.63 0,0 -0.25,0.09 -0.68,0.26 -0.43,0.18 -1.06,0.4 -1.8,0.66 -0.76,0.25 -1.64,0.55 -2.6,0.81 -0.48,0.13 -0.97,0.27 -1.48,0.42 -0.5,0.11 -1.02,0.23 -1.53,0.36 -2.07,0.47 -4.16,0.8 -5.74,0.98 -0.78,0.11 -1.44,0.16 -1.9,0.19 -0.46,0.04 -0.73,0.06 -0.73,0.06 -0.89,0.08 -1.72,-0.13 -2.35,-0.5 -0.63,-0.36 -1.05,-0.89 -1.16,-1.49 0,0 -0.42,-1.24 -0.97,-3.14 -0.53,-1.83 -1.16,-4.25 -1.67,-6.69 -5.16,-0.25 -10.08,-1.41 -14.62,-3.32 -1.52,1.99 -3.13,3.88 -4.41,5.29 -1.32,1.47 -2.24,2.39 -2.24,2.39 -0.36,0.52 -0.97,0.8 -1.7,0.86 -0.37,0.03 -0.76,0 -1.16,-0.09 -0.39,-0.11 -0.79,-0.27 -1.18,-0.5 0,0 -0.23,-0.13 -0.64,-0.36 -0.4,-0.23 -0.96,-0.58 -1.62,-1.01 -0.34,-0.21 -0.7,-0.45 -1.08,-0.69 -0.38,-0.26 -0.77,-0.54 -1.17,-0.82 -0.41,-0.29 -0.83,-0.58 -1.24,-0.9 -0.41,-0.31 -0.82,-0.64 -1.24,-0.97 -0.84,-0.64 -1.62,-1.36 -2.37,-2 -0.74,-0.65 -1.4,-1.31 -1.98,-1.86 -0.56,-0.54 -1.01,-1.03 -1.32,-1.36 -0.33,-0.33 -0.51,-0.53 -0.51,-0.53 -1.2,-1.32 -1.47,-3.07 -0.63,-4 0,0 0.72,-1.11 1.84,-2.71 0.56,-0.8 1.23,-1.73 1.97,-2.69 0.69,-0.91 1.44,-1.86 2.21,-2.79 -2.9,-4.04 -5.13,-8.6 -6.52,-13.51 -1.2,0.03 -2.41,0.02 -3.55,0 -1.22,-0.03 -2.35,-0.08 -3.33,-0.15 -1.96,-0.11 -3.27,-0.25 -3.27,-0.25 -0.61,0.03 -1.25,-0.26 -1.73,-0.8 -0.49,-0.54 -0.85,-1.32 -1.01,-2.2 0,0 -0.14,-1.05 -0.33,-2.63 -0.09,-0.78 -0.14,-1.7 -0.22,-2.69 -0.05,-0.99 -0.06,-2.03 -0.09,-3.09 0.03,-1.05 0.04,-2.11 0.09,-3.1 0.08,-0.98 0.13,-1.9 0.22,-2.69 0.19,-1.57 0.33,-2.63 0.33,-2.63 0.16,-0.87 0.52,-1.64 1.01,-2.18 0.48,-0.55 1.12,-0.84 1.73,-0.8 0,0 1.31,-0.15 3.27,-0.27 0.98,-0.05 2.11,-0.11 3.33,-0.14 1.14,-0.02 2.35,-0.02 3.55,-0.01 1.39,-4.9 3.62,-9.47 6.52,-13.5 -0.77,-0.93 -1.52,-1.88 -2.21,-2.79 -0.74,-0.96 -1.41,-1.89 -1.97,-2.69 -1.12,-1.6 -1.84,-2.71 -1.84,-2.71 -0.84,-0.93 -0.57,-2.68 0.63,-4.01 0,0 0.18,-0.19 0.51,-0.52 0.31,-0.34 0.76,-0.83 1.32,-1.37 0.58,-0.55 1.24,-1.2 1.98,-1.86 0.75,-0.64 1.53,-1.35 2.37,-2 0.42,-0.32 0.83,-0.64 1.24,-0.97 0.41,-0.31 0.83,-0.6 1.24,-0.88 0.4,-0.3 0.79,-0.57 1.17,-0.83 0.38,-0.25 0.74,-0.47 1.08,-0.7 0.66,-0.43 1.22,-0.78 1.62,-1 0.41,-0.23 0.64,-0.37 0.64,-0.37 0.39,-0.22 0.79,-0.38 1.18,-0.49 0.4,-0.09 0.79,-0.12 1.16,-0.09 0.73,0.06 1.34,0.35 1.7,0.85 0,0 0.92,0.93 2.24,2.39 1.28,1.42 2.89,3.32 4.41,5.3 4.54,-1.91 9.46,-3.07 14.62,-3.33 0.51,-2.44 1.14,-4.86 1.67,-6.67 0.55,-1.91 0.97,-3.14 0.97,-3.14 0.11,-0.61 0.53,-1.15 1.16,-1.5 0.63,-0.38 1.46,-0.58 2.35,-0.5 0,0 0.27,0.01 0.73,0.06 0.46,0.02 1.12,0.08 1.9,0.18 1.58,0.19 3.67,0.52 5.74,1 0.51,0.11 1.03,0.23 1.53,0.36 0.51,0.15 1,0.27 1.48,0.41 0.96,0.26 1.84,0.56 2.6,0.82 0.74,0.24 1.37,0.47 1.8,0.65 0.43,0.17 0.68,0.27 0.68,0.27 0.42,0.16 0.8,0.37 1.12,0.61 0.32,0.27 0.59,0.56 0.8,0.85 0.41,0.61 0.56,1.27 0.4,1.87 0,0 -0.16,1.3 -0.49,3.24 -0.31,1.87 -0.79,4.32 -1.39,6.75 4.42,2.43 8.37,5.59 11.69,9.34 2.23,-1.12 4.53,-2.15 6.28,-2.87 1.81,-0.74 3.05,-1.18 3.05,-1.18 0.54,-0.29 1.22,-0.3 1.91,-0.04 0.68,0.26 1.34,0.81 1.86,1.53 0,0 0.03,0.06 0.11,0.16 0.07,0.11 0.17,0.25 0.29,0.45 0.25,0.39 0.61,0.95 1.04,1.61 0.43,0.66 0.88,1.49 1.37,2.35 0.49,0.85 0.96,1.81 1.44,2.75 0.43,0.97 0.89,1.92 1.27,2.84 0.36,0.93 0.71,1.79 0.97,2.54 0.26,0.75 0.47,1.38 0.62,1.82 0.15,0.44 0.22,0.69 0.22,0.69 0.24,0.86 0.25,1.73 0.04,2.41 -0.22,0.7 -0.65,1.24 -1.22,1.47"
           style="fill:#ffffff;fill-opacity:1;fill-rule:nonzero;stroke:none"
           id="path3969" />
        <path
           d="m 2117.96,2357.84 c 0,-98.66 79.97,-178.61 178.61,-178.61 98.64,0 178.62,79.95 178.62,178.61 0,98.64 -79.98,178.61 -178.62,178.61 -98.64,0 -178.61,-79.97 -178.61,-178.61"
           style="fill:#3faa97;fill-opacity:1;fill-rule:nonzero;stroke:none"
           id="this-is-id-4" />
        <path
           d="m 2332.85,2286.86 c -2.96,0 -5.35,-2.41 -5.35,-5.36 0,-2.95 2.39,-5.34 5.35,-5.34 2.95,0 5.33,2.39 5.33,5.34 0,2.95 -2.38,5.36 -5.33,5.36"
           style="fill:#ffffff;fill-opacity:1;fill-rule:nonzero;stroke:none"
           id="path3973" />
        <path
           d="m 2313.09,2257.68 c -2.85,0 -5.14,-2.3 -5.14,-5.14 0,-2.84 2.29,-5.14 5.14,-5.14 2.83,0 5.12,2.3 5.12,5.14 0,2.84 -2.29,5.14 -5.12,5.14"
           style="fill:#ffffff;fill-opacity:1;fill-rule:nonzero;stroke:none"
           id="path3975" />
        <path
           d="m 2296.57,2234.55 c -37.24,0 -67.45,30.19 -67.45,67.44 h 73.44 c 0,8.37 6.78,15.15 15.14,15.15 8.35,0 15.15,-6.78 15.15,-15.15 h 31.17 c 0,-37.25 -30.2,-67.44 -67.45,-67.44 z m -30,106.68 c 7.16,0 12.97,-5.8 12.97,-12.97 0,-7.15 -5.81,-12.96 -12.97,-12.96 -7.17,0 -12.98,5.81 -12.98,12.96 0,7.17 5.81,12.97 12.98,12.97 z m 39.33,19.64 c 2.89,0 5.23,-2.35 5.23,-5.24 0,-2.89 -2.34,-5.24 -5.23,-5.24 -2.89,0 -5.24,2.35 -5.24,5.24 0,2.89 2.35,5.24 5.24,5.24 z m 28.73,-14.78 c 4.92,0 8.91,-4 8.91,-8.92 0,-4.92 -3.99,-8.91 -8.91,-8.91 -4.92,0 -8.91,3.99 -8.91,8.91 0,4.92 3.99,8.92 8.91,8.92 z m -21.02,33.07 v 89 c 4.75,0.29 8.54,4.2 8.54,9.03 v 6.44 c 0,5.01 -4.05,9.07 -9.06,9.07 h -33.03 c -5,0 -9.06,-4.06 -9.06,-9.07 v -6.44 c 0,-4.83 3.78,-8.74 8.54,-9.03 v -89 c -35.46,-7.8 -61.99,-39.37 -61.99,-77.17 0,-43.64 35.38,-79.02 79.02,-79.02 43.64,0 79.04,35.38 79.04,79.02 0,37.8 -26.55,69.37 -62,77.17"
           style="fill:#ffffff;fill-opacity:1;fill-rule:nonzero;stroke:none"
           id="path3977" />
        <path
           d="m 2263.95,2290.95 c -4.3,0 -7.8,-3.5 -7.8,-7.8 0,-4.3 3.5,-7.8 7.8,-7.8 4.3,0 7.8,3.5 7.8,7.8 0,4.3 -3.5,7.8 -7.8,7.8"
           style="fill:#ffffff;fill-opacity:1;fill-rule:nonzero;stroke:none"
           id="path3979" />
      </g>
    </g>
  </g>
</svg>
